<svg xmlns="http://www.w3.org/2000/svg" xmlns:xlink="http://www.w3.org/1999/xlink" width="1000" zoomAndPan="magnify" viewBox="0 0 750 749.999995" height="1000" preserveAspectRatio="xMidYMid meet" version="1.0"><defs><g/><clipPath id="761e762a99"><path d="M 225 214.5 L 525 214.5 L 525 375 L 225 375 Z M 225 214.5 " clip-rule="nonzero"/></clipPath></defs><rect x="-75" width="900" fill="#ffffff" y="-74.999999" height="899.999994" fill-opacity="1"/><rect x="-75" width="900" fill="#fcf9da" y="-74.999999" height="899.999994" fill-opacity="1"/><g clip-path="url(#761e762a99)"><path fill="#db636f" d="M 481.265625 262.359375 C 480.554688 264.039062 479.460938 265.121094 478.410156 266.1875 C 472.367188 272.308594 466.324219 278.421875 460.125 284.386719 C 453.890625 290.386719 448.007812 296.746094 441.84375 302.824219 C 434.785156 309.785156 428.988281 317.902344 421.691406 324.636719 C 421.03125 325.242188 420.308594 326.515625 419.378906 325.648438 C 418.523438 324.847656 419.554688 323.835938 420.167969 323.183594 C 424.507812 318.566406 428.84375 313.941406 433.300781 309.4375 C 440.226562 302.441406 447.121094 295.421875 453.8125 288.195312 C 458.148438 283.507812 462.871094 279.175781 467.464844 274.734375 C 471.207031 271.113281 475.011719 267.5625 478.796875 263.992188 C 479.445312 263.378906 480.019531 262.640625 481.265625 262.359375 Z M 264.972656 270.011719 C 268.417969 273.613281 271.882812 277.191406 275.324219 280.796875 C 287.761719 293.832031 301.214844 305.835938 313.882812 318.640625 C 316.226562 321.011719 318.757812 323.210938 321.460938 325.191406 C 321.898438 325.511719 322.449219 325.984375 322.976562 325.476562 C 323.601562 324.871094 323.039062 324.285156 322.644531 323.859375 C 321.53125 322.65625 320.433594 321.414062 319.175781 320.371094 C 304.480469 308.128906 291.933594 293.644531 277.839844 280.777344 C 273.453125 276.773438 269.296875 272.523438 264.378906 268.761719 C 264.359375 269.507812 264.714844 269.742188 264.972656 270.011719 Z M 523.585938 371.769531 C 515.328125 371.511719 507.070312 371.175781 498.8125 371.023438 C 490.65625 370.875 482.519531 371.355469 474.386719 371.980469 C 466.929688 372.554688 459.449219 372.328125 451.976562 372.457031 C 448.242188 372.519531 444.507812 372.679688 440.777344 372.839844 C 440.148438 372.863281 439.105469 372.671875 439.0625 373.480469 C 439.007812 374.5 440.175781 374.253906 440.792969 374.335938 C 442.933594 374.613281 445.09375 374.496094 447.234375 374.304688 C 456.828125 373.4375 466.433594 373.230469 476.070312 373.417969 C 491.695312 373.726562 507.3125 373 522.929688 372.722656 C 523.597656 372.710938 524.300781 372.777344 524.929688 372.238281 C 524.5 371.769531 524.035156 371.785156 523.585938 371.769531 Z M 370.605469 216.34375 C 370.234375 222.789062 370.085938 229.242188 370.09375 235.699219 C 370.113281 248.605469 371.101562 261.488281 371.21875 274.394531 C 371.304688 283.628906 370.894531 292.847656 370.542969 302.066406 C 370.503906 303.078125 370.382812 304.109375 370.847656 305.078125 C 371 305.394531 371.171875 305.699219 371.574219 305.675781 C 371.976562 305.652344 372.140625 305.324219 372.210938 304.988281 C 372.300781 304.542969 372.375 304.089844 372.382812 303.640625 C 372.5 298.324219 372.667969 293.007812 372.691406 287.691406 C 372.730469 278.914062 372.296875 270.148438 372.03125 261.375 C 371.734375 251.535156 371.820312 241.6875 371.699219 231.84375 C 371.628906 226.128906 371.777344 220.410156 371.148438 214.5 C 370.621094 215.210938 370.640625 215.785156 370.605469 216.34375 Z M 500.335938 321.621094 C 483.386719 328.011719 466.429688 334.371094 449.511719 340.828125 C 444.964844 342.5625 440.535156 344.59375 436.0625 346.515625 C 435.421875 346.792969 434.464844 347.082031 434.839844 348.03125 C 435.195312 348.9375 436.015625 348.375 436.613281 348.191406 C 438.890625 347.507812 441.152344 346.78125 443.34375 345.847656 C 461.160156 338.273438 479.1875 331.21875 497.171875 324.058594 C 499.464844 323.148438 501.714844 322.132812 503.785156 320.761719 C 502.507812 320.699219 501.433594 321.207031 500.335938 321.621094 Z M 226.003906 372.765625 C 235.90625 373.046875 245.804688 373.449219 255.707031 373.710938 C 268.546875 374.050781 281.402344 373.792969 294.230469 374.8125 C 296.824219 375.019531 299.441406 374.925781 302.015625 374.4375 C 302.640625 374.320312 303.558594 374.292969 303.523438 373.394531 C 303.492188 372.496094 302.574219 372.480469 301.945312 372.492188 C 297.867188 372.578125 293.796875 372.191406 289.71875 372.445312 C 283.441406 372.839844 277.144531 372.992188 270.882812 372.578125 C 257.761719 371.710938 244.636719 371.484375 231.503906 371.847656 C 229.351562 371.90625 227.152344 371.894531 225.042969 372.667969 C 225.363281 372.699219 225.683594 372.753906 226.003906 372.765625 Z M 316.355469 249.902344 C 321.074219 260.007812 325.328125 270.316406 329.632812 280.597656 C 333.371094 289.523438 336.914062 298.53125 340.574219 307.488281 C 341.042969 308.636719 341.675781 309.71875 342.253906 310.820312 C 342.46875 311.230469 342.78125 311.625 343.316406 311.441406 C 343.898438 311.242188 344.015625 310.726562 343.902344 310.1875 C 343.8125 309.746094 343.667969 309.3125 343.488281 308.898438 C 342.535156 306.722656 341.625 304.523438 340.589844 302.382812 C 335.285156 291.425781 330.539062 280.234375 326.398438 268.78125 C 323.933594 261.964844 321.28125 255.21875 317.460938 249.007812 C 316.996094 248.257812 316.609375 247.402344 315.621094 246.980469 C 315.402344 248.121094 315.9375 249.011719 316.355469 249.902344 Z M 246.3125 325.160156 C 256.511719 328.910156 266.734375 332.597656 276.914062 336.394531 C 285.402344 339.566406 293.566406 343.511719 301.945312 346.941406 C 303.574219 347.605469 305.230469 348.179688 306.941406 348.585938 C 307.457031 348.707031 308.019531 348.703125 308.253906 348.117188 C 308.523438 347.4375 308.066406 347.0625 307.511719 346.8125 C 307.203125 346.671875 306.878906 346.570312 306.554688 346.464844 C 296.503906 343.136719 286.648438 339.304688 276.898438 335.171875 C 265.589844 330.382812 254.207031 325.761719 242.378906 322.355469 C 241.519531 322.105469 240.679688 321.714844 239.316406 322 C 241.777344 323.480469 244.046875 324.324219 246.3125 325.160156 Z M 422.558594 243.355469 C 420.882812 246.945312 419.515625 250.667969 418.148438 254.382812 C 413.910156 265.90625 409.753906 277.453125 405.488281 288.964844 C 403.011719 295.648438 400.363281 302.265625 397.867188 308.941406 C 397.578125 309.714844 396.769531 311.003906 398.121094 311.429688 C 399.371094 311.824219 399.558594 310.425781 399.84375 309.574219 C 401.398438 304.902344 402.757812 300.164062 404.445312 295.542969 C 409.800781 280.875 415.289062 266.257812 420.679688 251.605469 C 421.882812 248.335938 423.21875 245.09375 423.945312 241.496094 C 423.046875 241.96875 422.863281 242.707031 422.558594 243.355469 Z M 437.984375 282.867188 C 432.300781 290.421875 427.175781 298.382812 421.203125 305.722656 C 418.304688 309.28125 415.738281 313.089844 413.0625 316.808594 C 412.523438 317.5625 411.390625 318.617188 412.460938 319.449219 C 413.597656 320.332031 414.207031 318.882812 414.777344 318.160156 C 415.863281 316.785156 416.867188 315.339844 417.804688 313.859375 C 420.992188 308.835938 424.125 303.769531 427.875 299.152344 C 432.625 293.296875 436.972656 287.15625 441.269531 280.976562 C 442.25 279.566406 443.347656 278.171875 443.589844 276.328125 C 441.390625 278.246094 439.703125 280.578125 437.984375 282.867188 Z M 255.289062 360.132812 C 268.902344 361.511719 282.507812 362.949219 296.015625 365.199219 C 298.121094 365.546875 300.242188 366.066406 302.40625 365.859375 C 303.019531 365.800781 303.941406 365.796875 303.894531 364.84375 C 303.851562 364.054688 303.046875 364.023438 302.453125 363.9375 C 299.765625 363.550781 297.082031 363.101562 294.382812 362.855469 C 284.527344 361.964844 274.726562 360.628906 264.898438 359.503906 C 260 358.945312 255.113281 359.144531 250.230469 359.515625 C 251.933594 359.742188 253.609375 359.960938 255.289062 360.132812 Z M 468.304688 296.023438 C 467.933594 296.269531 467.539062 296.492188 467.191406 296.773438 C 461.652344 301.179688 456.109375 305.582031 450.597656 310.019531 C 447.246094 312.71875 443.980469 315.527344 440.609375 318.195312 C 436.65625 321.324219 432.613281 324.335938 428.632812 327.429688 C 427.425781 328.367188 426.296875 329.40625 425.371094 330.640625 C 425.054688 331.058594 424.757812 331.515625 425.21875 332.003906 C 425.660156 332.472656 426.15625 332.261719 426.609375 331.988281 C 426.894531 331.8125 427.164062 331.59375 427.414062 331.371094 C 429.488281 329.527344 431.515625 327.625 433.636719 325.839844 C 438.789062 321.5 443.84375 317.019531 449.210938 312.957031 C 454.910156 308.644531 460.410156 304.121094 465.691406 299.316406 C 466.726562 298.375 467.859375 297.539062 468.945312 296.65625 C 468.734375 296.445312 468.519531 296.234375 468.304688 296.023438 Z M 275.953125 303.535156 C 288.425781 313.101562 301.621094 321.691406 313.972656 331.429688 C 314.496094 331.84375 315.125 332.140625 315.734375 332.425781 C 316.203125 332.644531 316.773438 332.78125 317.082031 332.199219 C 317.410156 331.589844 316.886719 331.285156 316.46875 330.996094 C 314.84375 329.863281 313.230469 328.71875 311.585938 327.613281 C 302.480469 321.484375 294.058594 314.410156 284.933594 308.308594 C 281.664062 306.121094 278.558594 303.664062 274.625 302.058594 C 274.984375 302.933594 275.511719 303.199219 275.953125 303.535156 Z M 297.597656 285.597656 C 303.304688 293.0625 309.867188 299.800781 315.742188 307.125 C 319.070312 311.273438 322.460938 315.371094 325.890625 319.429688 C 326.433594 320.074219 327.230469 321.367188 328.183594 320.464844 C 329.066406 319.636719 327.804688 318.875 327.273438 318.261719 C 321.570312 311.679688 315.460938 305.417969 310.335938 298.367188 C 306.4375 293.003906 301.960938 288.304688 296.59375 283.960938 C 296.769531 284.855469 297.269531 285.167969 297.597656 285.597656 Z M 384.914062 263.613281 C 384.664062 265.121094 384.320312 266.621094 384.214844 268.136719 C 383.40625 279.773438 381.785156 291.304688 379.875 302.800781 C 379.765625 303.464844 379.757812 304.152344 379.777344 304.828125 C 379.789062 305.292969 379.972656 305.753906 380.523438 305.8125 C 381.078125 305.871094 381.347656 305.46875 381.457031 305.007812 C 381.71875 303.90625 382.03125 302.808594 382.160156 301.691406 C 383.394531 290.90625 384.621094 280.113281 385.476562 269.289062 C 385.632812 267.296875 385.628906 265.292969 385.34375 263.082031 C 385.089844 263.386719 384.933594 263.488281 384.914062 263.613281 Z M 354.480469 267.804688 C 355.132812 273.191406 356.375 278.484375 357.164062 283.851562 C 358.0625 289.945312 358.804688 296.0625 359.628906 302.164062 C 359.742188 303.003906 359.902344 303.839844 360.128906 304.65625 C 360.304688 305.285156 360.457031 306.132812 361.351562 306.023438 C 362.285156 305.90625 362.148438 305.058594 362.128906 304.398438 C 362.109375 303.839844 362.007812 303.277344 361.910156 302.722656 C 360.25 293.257812 358.617188 283.792969 356.902344 274.339844 C 356.414062 271.65625 356.085938 268.90625 354.761719 266.246094 C 354.226562 266.921875 354.429688 267.371094 354.480469 267.804688 Z M 283.03125 326.585938 C 286.683594 328.503906 290.347656 330.410156 294.070312 332.1875 C 298.980469 334.53125 303.320312 337.878906 308.285156 340.109375 C 309.109375 340.480469 309.914062 340.925781 310.851562 340.914062 C 311.253906 340.910156 311.679688 340.882812 311.824219 340.410156 C 311.953125 339.984375 311.761719 339.625 311.398438 339.394531 C 310.492188 338.820312 309.601562 338.207031 308.648438 337.722656 C 300.414062 333.585938 292.179688 329.453125 283.921875 325.371094 C 282.847656 324.839844 281.742188 324.199219 280.328125 324.28125 C 280.855469 325.621094 282.03125 326.058594 283.03125 326.585938 Z M 396.804688 276.398438 C 395.808594 279.996094 394.65625 283.5625 393.894531 287.207031 C 392.636719 293.246094 390.445312 299.066406 389.679688 305.210938 C 389.558594 306.191406 388.871094 307.726562 390.203125 308.035156 C 391.765625 308.394531 391.800781 306.632812 391.914062 305.648438 C 392.777344 298.136719 395.03125 290.933594 396.664062 283.59375 C 397.292969 280.761719 397.554688 277.878906 397.390625 274.898438 C 397.191406 275.398438 396.945312 275.882812 396.804688 276.398438 Z M 488.273438 359.203125 C 485.75 359.480469 483.210938 359.65625 480.703125 360.046875 C 471.585938 361.476562 462.433594 362.582031 453.230469 363.296875 C 449.058594 363.621094 444.871094 363.914062 440.765625 364.808594 C 440.082031 364.957031 438.980469 365.015625 439.089844 365.886719 C 439.222656 366.941406 440.296875 366.414062 440.929688 366.332031 C 446.035156 365.667969 451.125 364.851562 456.242188 364.265625 C 465.011719 363.265625 473.773438 362.207031 482.492188 360.835938 C 484.460938 360.523438 486.394531 359.980469 488.339844 359.542969 C 488.320312 359.429688 488.296875 359.316406 488.273438 359.203125 Z M 419.691406 285.308594 C 416.660156 290.546875 414.222656 296.097656 411.09375 301.289062 C 409.167969 304.476562 407.570312 307.867188 405.839844 311.171875 C 405.472656 311.875 405.148438 312.605469 405.09375 313.414062 C 405.0625 313.863281 405.027344 314.371094 405.574219 314.550781 C 406.039062 314.699219 406.335938 314.339844 406.53125 314.003906 C 407.214844 312.835938 407.929688 311.675781 408.515625 310.453125 C 411.636719 303.925781 414.644531 297.34375 418.398438 291.132812 C 419.679688 289.019531 420.953125 286.851562 421.632812 284.425781 C 421.734375 284.054688 422.113281 283.542969 421.269531 283.394531 C 420.519531 283.828125 420.113281 284.578125 419.691406 285.308594 Z M 341.285156 281.03125 C 343.691406 289.210938 346.105469 297.394531 348.53125 305.570312 C 348.789062 306.433594 349.054688 307.304688 349.609375 308.042969 C 349.941406 308.488281 350.386719 308.746094 350.933594 308.492188 C 351.410156 308.265625 351.484375 307.785156 351.398438 307.324219 C 351.277344 306.660156 351.121094 305.996094 350.917969 305.351562 C 348.332031 297.160156 345.25 289.144531 342.316406 281.078125 C 342.097656 280.484375 342.003906 279.742188 341.25 279.433594 C 340.84375 280 341.132812 280.519531 341.285156 281.03125 Z M 319.792969 291.460938 C 323.953125 297.742188 327.257812 304.535156 331.371094 310.839844 C 332.296875 312.261719 333.332031 313.609375 334.355469 314.964844 C 334.664062 315.371094 335.132812 315.753906 335.667969 315.402344 C 336.195312 315.058594 336.0625 314.492188 335.832031 314.019531 C 335.558594 313.464844 335.238281 312.925781 334.886719 312.414062 C 330.3125 305.730469 326.082031 298.835938 321.863281 291.929688 C 320.972656 290.464844 319.84375 289.238281 318.207031 287.769531 C 318.597656 289.4375 319.148438 290.488281 319.792969 291.460938 Z M 276.625 348.929688 C 276.453125 349.589844 277.195312 349.6875 277.613281 349.859375 C 278.5 350.226562 279.410156 350.574219 280.34375 350.773438 C 285.828125 351.945312 291.210938 353.484375 296.570312 355.132812 C 298.835938 355.832031 301.175781 356.300781 303.5 356.796875 C 304.175781 356.945312 305.097656 357.132812 305.34375 356.136719 C 305.601562 355.09375 304.722656 354.78125 303.964844 354.539062 C 303.214844 354.296875 302.433594 354.125 301.652344 354.003906 C 296.054688 353.132812 290.535156 351.910156 285.105469 350.277344 C 282.71875 349.5625 280.3125 348.917969 277.734375 348.609375 C 277.429688 348.800781 276.769531 348.371094 276.625 348.929688 Z M 465.582031 350.757812 C 465.246094 350.757812 464.90625 350.714844 464.578125 350.765625 C 457.753906 351.800781 450.929688 352.835938 444.113281 353.898438 C 442.105469 354.210938 440.0625 354.425781 438.179688 355.273438 C 437.585938 355.539062 436.714844 355.800781 436.96875 356.65625 C 437.222656 357.515625 438.09375 357.25 438.730469 357.144531 C 444.984375 356.113281 451.214844 354.945312 457.351562 353.34375 C 460.121094 352.625 462.875 351.835938 465.636719 351.082031 C 465.617188 350.972656 465.601562 350.867188 465.582031 350.757812 Z M 453.71875 327.484375 C 447.300781 330.683594 440.878906 333.878906 434.484375 337.125 C 433.382812 337.683594 432.390625 338.464844 431.367188 339.164062 C 430.933594 339.457031 430.5 339.84375 430.773438 340.417969 C 431.101562 341.105469 431.714844 340.867188 432.25 340.691406 C 432.570312 340.582031 432.871094 340.417969 433.179688 340.273438 C 440.398438 336.867188 447.125 332.59375 453.9375 328.472656 C 454.492188 328.136719 455.140625 327.828125 455.304688 327.050781 C 454.664062 326.84375 454.199219 327.246094 453.71875 327.484375 Z M 267.441406 347.007812 C 267.433594 348.089844 268.113281 348.652344 269.160156 348.679688 C 270.078125 348.703125 270.6875 348.230469 270.683594 347.265625 C 270.683594 346.175781 269.957031 345.707031 269.003906 345.53125 C 268.050781 345.605469 267.453125 346.082031 267.441406 347.007812 Z M 274.53125 319.460938 C 273.621094 319.488281 273.023438 320.0625 273.058594 320.984375 C 273.09375 321.960938 273.722656 322.539062 274.714844 322.535156 C 275.667969 322.53125 276.113281 321.933594 276.1875 320.972656 C 276.070312 320.027344 275.523438 319.433594 274.53125 319.460938 Z M 399.5625 266.363281 C 398.667969 266.375 398.15625 267.0625 398.085938 267.910156 C 398.007812 268.875 398.496094 269.578125 399.511719 269.605469 C 400.441406 269.628906 400.882812 268.988281 400.984375 268.039062 C 400.867188 267.21875 400.640625 266.347656 399.5625 266.363281 Z M 481.515625 345.488281 C 480.5625 345.558594 479.894531 346.050781 479.929688 347.074219 C 479.960938 348.03125 480.625 348.445312 481.523438 348.394531 C 482.484375 348.34375 483.074219 347.832031 483.136719 346.761719 C 482.988281 345.890625 482.433594 345.425781 481.515625 345.488281 Z M 402.328125 257.78125 C 401.289062 257.855469 400.734375 258.566406 400.742188 259.59375 C 400.75 260.453125 401.296875 260.953125 402.140625 260.9375 C 403.199219 260.917969 403.53125 260.171875 403.589844 259.140625 C 403.492188 258.464844 403.269531 257.714844 402.328125 257.78125 Z M 462.597656 323.421875 C 462.589844 322.558594 462.046875 322.070312 461.1875 322.085938 C 460.285156 322.101562 459.648438 322.582031 459.695312 323.535156 C 459.738281 324.386719 460.375 324.765625 461.199219 324.820312 C 462.019531 324.703125 462.601562 324.285156 462.597656 323.421875 Z M 336.207031 266.597656 C 336.1875 267.433594 336.613281 268.03125 337.472656 268.097656 C 338.394531 268.167969 338.972656 267.65625 339.042969 266.722656 C 339.117188 265.785156 338.597656 265.269531 337.625 265.085938 C 336.800781 265.203125 336.226562 265.660156 336.207031 266.597656 Z M 313.421875 282.988281 C 313.449219 283.929688 314.027344 284.429688 314.9375 284.425781 C 315.734375 284.417969 316.179688 283.898438 316.160156 283.117188 C 316.136719 282.1875 315.5625 281.722656 314.667969 281.652344 C 313.886719 281.777344 313.398438 282.1875 313.421875 282.988281 Z M 471.675781 349.03125 C 471.671875 349.804688 472.144531 350.289062 472.933594 350.304688 C 473.789062 350.320312 474.320312 349.839844 474.378906 349 C 474.4375 348.160156 473.839844 347.851562 473.09375 347.742188 C 472.277344 347.785156 471.679688 348.140625 471.675781 349.03125 Z M 260.8125 343.828125 C 260.019531 343.890625 259.5625 344.367188 259.628906 345.167969 C 259.691406 345.976562 260.257812 346.332031 261.023438 346.324219 C 261.820312 346.316406 262.269531 345.890625 262.316406 345.085938 C 262.179688 344.222656 261.683594 343.761719 260.8125 343.828125 Z M 468.144531 318.441406 C 467.285156 318.453125 466.742188 318.941406 466.789062 319.824219 C 466.828125 320.554688 467.347656 320.925781 468.0625 320.90625 C 468.867188 320.882812 469.273438 320.394531 469.347656 319.621094 C 469.265625 318.890625 468.875 318.433594 468.144531 318.441406 Z M 339.390625 272.160156 C 338.601562 272.191406 338.164062 272.691406 338.179688 273.480469 C 338.195312 274.210938 338.632812 274.625 339.355469 274.632812 C 340.148438 274.640625 340.582031 274.1875 340.699219 273.328125 C 340.578125 272.648438 340.203125 272.125 339.390625 272.160156 Z M 423.714844 277.140625 C 423.003906 277.148438 422.53125 277.519531 422.480469 278.265625 C 422.433594 279.003906 422.832031 279.480469 423.550781 279.523438 C 424.351562 279.574219 424.777344 279.074219 424.917969 278.253906 C 424.820312 277.59375 424.464844 277.132812 423.714844 277.140625 Z M 423.714844 277.140625 " fill-opacity="1" fill-rule="nonzero"/><path fill="#db636f" d="M 481.265625 262.359375 C 480.554688 264.039062 479.460938 265.121094 478.410156 266.1875 C 472.367188 272.308594 466.324219 278.421875 460.125 284.386719 C 453.890625 290.386719 448.007812 296.746094 441.84375 302.824219 C 434.785156 309.785156 428.988281 317.902344 421.691406 324.636719 C 421.03125 325.242188 420.308594 326.515625 419.378906 325.648438 C 418.523438 324.847656 419.554688 323.835938 420.167969 323.183594 C 424.507812 318.566406 428.84375 313.941406 433.300781 309.4375 C 440.226562 302.441406 447.121094 295.421875 453.8125 288.195312 C 458.148438 283.507812 462.871094 279.175781 467.464844 274.734375 C 471.207031 271.113281 475.011719 267.5625 478.796875 263.992188 C 479.445312 263.378906 480.019531 262.640625 481.265625 262.359375 Z M 264.972656 270.011719 C 268.417969 273.613281 271.882812 277.191406 275.324219 280.796875 C 287.761719 293.832031 301.214844 305.835938 313.882812 318.640625 C 316.226562 321.011719 318.757812 323.210938 321.460938 325.191406 C 321.898438 325.511719 322.449219 325.984375 322.976562 325.476562 C 323.601562 324.871094 323.039062 324.285156 322.644531 323.859375 C 321.53125 322.65625 320.433594 321.414062 319.175781 320.371094 C 304.480469 308.128906 291.933594 293.644531 277.839844 280.777344 C 273.453125 276.773438 269.296875 272.523438 264.378906 268.761719 C 264.359375 269.507812 264.714844 269.742188 264.972656 270.011719 Z M 523.585938 371.769531 C 515.328125 371.511719 507.070312 371.175781 498.8125 371.023438 C 490.65625 370.875 482.519531 371.355469 474.386719 371.980469 C 466.929688 372.554688 459.449219 372.328125 451.976562 372.457031 C 448.242188 372.519531 444.507812 372.679688 440.777344 372.839844 C 440.148438 372.863281 439.105469 372.671875 439.0625 373.480469 C 439.007812 374.5 440.175781 374.253906 440.792969 374.335938 C 442.933594 374.613281 445.09375 374.496094 447.234375 374.304688 C 456.828125 373.4375 466.433594 373.230469 476.070312 373.417969 C 491.695312 373.726562 507.3125 373 522.929688 372.722656 C 523.597656 372.710938 524.300781 372.777344 524.929688 372.238281 C 524.5 371.769531 524.035156 371.785156 523.585938 371.769531 Z M 370.605469 216.34375 C 370.234375 222.789062 370.085938 229.242188 370.09375 235.699219 C 370.113281 248.605469 371.101562 261.488281 371.21875 274.394531 C 371.304688 283.628906 370.894531 292.847656 370.542969 302.066406 C 370.503906 303.078125 370.382812 304.109375 370.847656 305.078125 C 371 305.394531 371.171875 305.699219 371.574219 305.675781 C 371.976562 305.652344 372.140625 305.324219 372.210938 304.988281 C 372.300781 304.542969 372.375 304.089844 372.382812 303.640625 C 372.5 298.324219 372.667969 293.007812 372.691406 287.691406 C 372.730469 278.914062 372.296875 270.148438 372.03125 261.375 C 371.734375 251.535156 371.820312 241.6875 371.699219 231.84375 C 371.628906 226.128906 371.777344 220.410156 371.148438 214.5 C 370.621094 215.210938 370.640625 215.785156 370.605469 216.34375 Z M 500.335938 321.621094 C 483.386719 328.011719 466.429688 334.371094 449.511719 340.828125 C 444.964844 342.5625 440.535156 344.59375 436.0625 346.515625 C 435.421875 346.792969 434.464844 347.082031 434.839844 348.03125 C 435.195312 348.9375 436.015625 348.375 436.613281 348.191406 C 438.890625 347.507812 441.152344 346.78125 443.34375 345.847656 C 461.160156 338.273438 479.1875 331.21875 497.171875 324.058594 C 499.464844 323.148438 501.714844 322.132812 503.785156 320.761719 C 502.507812 320.699219 501.433594 321.207031 500.335938 321.621094 Z M 226.003906 372.765625 C 235.90625 373.046875 245.804688 373.449219 255.707031 373.710938 C 268.546875 374.050781 281.402344 373.792969 294.230469 374.8125 C 296.824219 375.019531 299.441406 374.925781 302.015625 374.4375 C 302.640625 374.320312 303.558594 374.292969 303.523438 373.394531 C 303.492188 372.496094 302.574219 372.480469 301.945312 372.492188 C 297.867188 372.578125 293.796875 372.191406 289.71875 372.445312 C 283.441406 372.839844 277.144531 372.992188 270.882812 372.578125 C 257.761719 371.710938 244.636719 371.484375 231.503906 371.847656 C 229.351562 371.90625 227.152344 371.894531 225.042969 372.667969 C 225.363281 372.699219 225.683594 372.753906 226.003906 372.765625 Z M 316.355469 249.902344 C 321.074219 260.007812 325.328125 270.316406 329.632812 280.597656 C 333.371094 289.523438 336.914062 298.53125 340.574219 307.488281 C 341.042969 308.636719 341.675781 309.71875 342.253906 310.820312 C 342.46875 311.230469 342.78125 311.625 343.316406 311.441406 C 343.898438 311.242188 344.015625 310.726562 343.902344 310.1875 C 343.8125 309.746094 343.667969 309.3125 343.488281 308.898438 C 342.535156 306.722656 341.625 304.523438 340.589844 302.382812 C 335.285156 291.425781 330.539062 280.234375 326.398438 268.78125 C 323.933594 261.964844 321.28125 255.21875 317.460938 249.007812 C 316.996094 248.257812 316.609375 247.402344 315.621094 246.980469 C 315.402344 248.121094 315.9375 249.011719 316.355469 249.902344 Z M 246.3125 325.160156 C 256.511719 328.910156 266.734375 332.597656 276.914062 336.394531 C 285.402344 339.566406 293.566406 343.511719 301.945312 346.941406 C 303.574219 347.605469 305.230469 348.179688 306.941406 348.585938 C 307.457031 348.707031 308.019531 348.703125 308.253906 348.117188 C 308.523438 347.4375 308.066406 347.0625 307.511719 346.8125 C 307.203125 346.671875 306.878906 346.570312 306.554688 346.464844 C 296.503906 343.136719 286.648438 339.304688 276.898438 335.171875 C 265.589844 330.382812 254.207031 325.761719 242.378906 322.355469 C 241.519531 322.105469 240.679688 321.714844 239.316406 322 C 241.777344 323.480469 244.046875 324.324219 246.3125 325.160156 Z M 422.558594 243.355469 C 420.882812 246.945312 419.515625 250.667969 418.148438 254.382812 C 413.910156 265.90625 409.753906 277.453125 405.488281 288.964844 C 403.011719 295.648438 400.363281 302.265625 397.867188 308.941406 C 397.578125 309.714844 396.769531 311.003906 398.121094 311.429688 C 399.371094 311.824219 399.558594 310.425781 399.84375 309.574219 C 401.398438 304.902344 402.757812 300.164062 404.445312 295.542969 C 409.800781 280.875 415.289062 266.257812 420.679688 251.605469 C 421.882812 248.335938 423.21875 245.09375 423.945312 241.496094 C 423.046875 241.96875 422.863281 242.707031 422.558594 243.355469 Z M 437.984375 282.867188 C 432.300781 290.421875 427.175781 298.382812 421.203125 305.722656 C 418.304688 309.28125 415.738281 313.089844 413.0625 316.808594 C 412.523438 317.5625 411.390625 318.617188 412.460938 319.449219 C 413.597656 320.332031 414.207031 318.882812 414.777344 318.160156 C 415.863281 316.785156 416.867188 315.339844 417.804688 313.859375 C 420.992188 308.835938 424.125 303.769531 427.875 299.152344 C 432.625 293.296875 436.972656 287.15625 441.269531 280.976562 C 442.25 279.566406 443.347656 278.171875 443.589844 276.328125 C 441.390625 278.246094 439.703125 280.578125 437.984375 282.867188 Z M 255.289062 360.132812 C 268.902344 361.511719 282.507812 362.949219 296.015625 365.199219 C 298.121094 365.546875 300.242188 366.066406 302.40625 365.859375 C 303.019531 365.800781 303.941406 365.796875 303.894531 364.84375 C 303.851562 364.054688 303.046875 364.023438 302.453125 363.9375 C 299.765625 363.550781 297.082031 363.101562 294.382812 362.855469 C 284.527344 361.964844 274.726562 360.628906 264.898438 359.503906 C 260 358.945312 255.113281 359.144531 250.230469 359.515625 C 251.933594 359.742188 253.609375 359.960938 255.289062 360.132812 Z M 468.304688 296.023438 C 467.933594 296.269531 467.539062 296.492188 467.191406 296.773438 C 461.652344 301.179688 456.109375 305.582031 450.597656 310.019531 C 447.246094 312.71875 443.980469 315.527344 440.609375 318.195312 C 436.65625 321.324219 432.613281 324.335938 428.632812 327.429688 C 427.425781 328.367188 426.296875 329.40625 425.371094 330.640625 C 425.054688 331.058594 424.757812 331.515625 425.21875 332.003906 C 425.660156 332.472656 426.15625 332.261719 426.609375 331.988281 C 426.894531 331.8125 427.164062 331.59375 427.414062 331.371094 C 429.488281 329.527344 431.515625 327.625 433.636719 325.839844 C 438.789062 321.5 443.84375 317.019531 449.210938 312.957031 C 454.910156 308.644531 460.410156 304.121094 465.691406 299.316406 C 466.726562 298.375 467.859375 297.539062 468.945312 296.65625 C 468.734375 296.445312 468.519531 296.234375 468.304688 296.023438 Z M 275.953125 303.535156 C 288.425781 313.101562 301.621094 321.691406 313.972656 331.429688 C 314.496094 331.84375 315.125 332.140625 315.734375 332.425781 C 316.203125 332.644531 316.773438 332.78125 317.082031 332.199219 C 317.410156 331.589844 316.886719 331.285156 316.46875 330.996094 C 314.84375 329.863281 313.230469 328.71875 311.585938 327.613281 C 302.480469 321.484375 294.058594 314.410156 284.933594 308.308594 C 281.664062 306.121094 278.558594 303.664062 274.625 302.058594 C 274.984375 302.933594 275.511719 303.199219 275.953125 303.535156 Z M 297.597656 285.597656 C 303.304688 293.0625 309.867188 299.800781 315.742188 307.125 C 319.070312 311.273438 322.460938 315.371094 325.890625 319.429688 C 326.433594 320.074219 327.230469 321.367188 328.183594 320.464844 C 329.066406 319.636719 327.804688 318.875 327.273438 318.261719 C 321.570312 311.679688 315.460938 305.417969 310.335938 298.367188 C 306.4375 293.003906 301.960938 288.304688 296.59375 283.960938 C 296.769531 284.855469 297.269531 285.167969 297.597656 285.597656 Z M 384.914062 263.613281 C 384.664062 265.121094 384.320312 266.621094 384.214844 268.136719 C 383.40625 279.773438 381.785156 291.304688 379.875 302.800781 C 379.765625 303.464844 379.757812 304.152344 379.777344 304.828125 C 379.789062 305.292969 379.972656 305.753906 380.523438 305.8125 C 381.078125 305.871094 381.347656 305.46875 381.457031 305.007812 C 381.71875 303.90625 382.03125 302.808594 382.160156 301.691406 C 383.394531 290.90625 384.621094 280.113281 385.476562 269.289062 C 385.632812 267.296875 385.628906 265.292969 385.34375 263.082031 C 385.089844 263.386719 384.933594 263.488281 384.914062 263.613281 Z M 354.480469 267.804688 C 355.132812 273.191406 356.375 278.484375 357.164062 283.851562 C 358.0625 289.945312 358.804688 296.0625 359.628906 302.164062 C 359.742188 303.003906 359.902344 303.839844 360.128906 304.65625 C 360.304688 305.285156 360.457031 306.132812 361.351562 306.023438 C 362.285156 305.90625 362.148438 305.058594 362.128906 304.398438 C 362.109375 303.839844 362.007812 303.277344 361.910156 302.722656 C 360.25 293.257812 358.617188 283.792969 356.902344 274.339844 C 356.414062 271.65625 356.085938 268.90625 354.761719 266.246094 C 354.226562 266.921875 354.429688 267.371094 354.480469 267.804688 Z M 283.03125 326.585938 C 286.683594 328.503906 290.347656 330.410156 294.070312 332.1875 C 298.980469 334.53125 303.320312 337.878906 308.285156 340.109375 C 309.109375 340.480469 309.914062 340.925781 310.851562 340.914062 C 311.253906 340.910156 311.679688 340.882812 311.824219 340.410156 C 311.953125 339.984375 311.761719 339.625 311.398438 339.394531 C 310.492188 338.820312 309.601562 338.207031 308.648438 337.722656 C 300.414062 333.585938 292.179688 329.453125 283.921875 325.371094 C 282.847656 324.839844 281.742188 324.199219 280.328125 324.28125 C 280.855469 325.621094 282.03125 326.058594 283.03125 326.585938 Z M 396.804688 276.398438 C 395.808594 279.996094 394.65625 283.5625 393.894531 287.207031 C 392.636719 293.246094 390.445312 299.066406 389.679688 305.210938 C 389.558594 306.191406 388.871094 307.726562 390.203125 308.035156 C 391.765625 308.394531 391.800781 306.632812 391.914062 305.648438 C 392.777344 298.136719 395.03125 290.933594 396.664062 283.59375 C 397.292969 280.761719 397.554688 277.878906 397.390625 274.898438 C 397.191406 275.398438 396.945312 275.882812 396.804688 276.398438 Z M 488.273438 359.203125 C 485.75 359.480469 483.210938 359.65625 480.703125 360.046875 C 471.585938 361.476562 462.433594 362.582031 453.230469 363.296875 C 449.058594 363.621094 444.871094 363.914062 440.765625 364.808594 C 440.082031 364.957031 438.980469 365.015625 439.089844 365.886719 C 439.222656 366.941406 440.296875 366.414062 440.929688 366.332031 C 446.035156 365.667969 451.125 364.851562 456.242188 364.265625 C 465.011719 363.265625 473.773438 362.207031 482.492188 360.835938 C 484.460938 360.523438 486.394531 359.980469 488.339844 359.542969 C 488.320312 359.429688 488.296875 359.316406 488.273438 359.203125 Z M 419.691406 285.308594 C 416.660156 290.546875 414.222656 296.097656 411.09375 301.289062 C 409.167969 304.476562 407.570312 307.867188 405.839844 311.171875 C 405.472656 311.875 405.148438 312.605469 405.09375 313.414062 C 405.0625 313.863281 405.027344 314.371094 405.574219 314.550781 C 406.039062 314.699219 406.335938 314.339844 406.53125 314.003906 C 407.214844 312.835938 407.929688 311.675781 408.515625 310.453125 C 411.636719 303.925781 414.644531 297.34375 418.398438 291.132812 C 419.679688 289.019531 420.953125 286.851562 421.632812 284.425781 C 421.734375 284.054688 422.113281 283.542969 421.269531 283.394531 C 420.519531 283.828125 420.113281 284.578125 419.691406 285.308594 Z M 341.285156 281.03125 C 343.691406 289.210938 346.105469 297.394531 348.53125 305.570312 C 348.789062 306.433594 349.054688 307.304688 349.609375 308.042969 C 349.941406 308.488281 350.386719 308.746094 350.933594 308.492188 C 351.410156 308.265625 351.484375 307.785156 351.398438 307.324219 C 351.277344 306.660156 351.121094 305.996094 350.917969 305.351562 C 348.332031 297.160156 345.25 289.144531 342.316406 281.078125 C 342.097656 280.484375 342.003906 279.742188 341.25 279.433594 C 340.84375 280 341.132812 280.519531 341.285156 281.03125 Z M 319.792969 291.460938 C 323.953125 297.742188 327.257812 304.535156 331.371094 310.839844 C 332.296875 312.261719 333.332031 313.609375 334.355469 314.964844 C 334.664062 315.371094 335.132812 315.753906 335.667969 315.402344 C 336.195312 315.058594 336.0625 314.492188 335.832031 314.019531 C 335.558594 313.464844 335.238281 312.925781 334.886719 312.414062 C 330.3125 305.730469 326.082031 298.835938 321.863281 291.929688 C 320.972656 290.464844 319.84375 289.238281 318.207031 287.769531 C 318.597656 289.4375 319.148438 290.488281 319.792969 291.460938 Z M 276.625 348.929688 C 276.453125 349.589844 277.195312 349.6875 277.613281 349.859375 C 278.5 350.226562 279.410156 350.574219 280.34375 350.773438 C 285.828125 351.945312 291.210938 353.484375 296.570312 355.132812 C 298.835938 355.832031 301.175781 356.300781 303.5 356.796875 C 304.175781 356.945312 305.097656 357.132812 305.34375 356.136719 C 305.601562 355.09375 304.722656 354.78125 303.964844 354.539062 C 303.214844 354.296875 302.433594 354.125 301.652344 354.003906 C 296.054688 353.132812 290.535156 351.910156 285.105469 350.277344 C 282.71875 349.5625 280.3125 348.917969 277.734375 348.609375 C 277.429688 348.800781 276.769531 348.371094 276.625 348.929688 Z M 465.582031 350.757812 C 465.246094 350.757812 464.90625 350.714844 464.578125 350.765625 C 457.753906 351.800781 450.929688 352.835938 444.113281 353.898438 C 442.105469 354.210938 440.0625 354.425781 438.179688 355.273438 C 437.585938 355.539062 436.714844 355.800781 436.96875 356.65625 C 437.222656 357.515625 438.09375 357.25 438.730469 357.144531 C 444.984375 356.113281 451.214844 354.945312 457.351562 353.34375 C 460.121094 352.625 462.875 351.835938 465.636719 351.082031 C 465.617188 350.972656 465.601562 350.867188 465.582031 350.757812 Z M 453.71875 327.484375 C 447.300781 330.683594 440.878906 333.878906 434.484375 337.125 C 433.382812 337.683594 432.390625 338.464844 431.367188 339.164062 C 430.933594 339.457031 430.5 339.84375 430.773438 340.417969 C 431.101562 341.105469 431.714844 340.867188 432.25 340.691406 C 432.570312 340.582031 432.871094 340.417969 433.179688 340.273438 C 440.398438 336.867188 447.125 332.59375 453.9375 328.472656 C 454.492188 328.136719 455.140625 327.828125 455.304688 327.050781 C 454.664062 326.84375 454.199219 327.246094 453.71875 327.484375 Z M 267.441406 347.007812 C 267.433594 348.089844 268.113281 348.652344 269.160156 348.679688 C 270.078125 348.703125 270.6875 348.230469 270.683594 347.265625 C 270.683594 346.175781 269.957031 345.707031 269.003906 345.53125 C 268.050781 345.605469 267.453125 346.082031 267.441406 347.007812 Z M 274.53125 319.460938 C 273.621094 319.488281 273.023438 320.0625 273.058594 320.984375 C 273.09375 321.960938 273.722656 322.539062 274.714844 322.535156 C 275.667969 322.53125 276.113281 321.933594 276.1875 320.972656 C 276.070312 320.027344 275.523438 319.433594 274.53125 319.460938 Z M 399.5625 266.363281 C 398.667969 266.375 398.15625 267.0625 398.085938 267.910156 C 398.007812 268.875 398.496094 269.578125 399.511719 269.605469 C 400.441406 269.628906 400.882812 268.988281 400.984375 268.039062 C 400.867188 267.21875 400.640625 266.347656 399.5625 266.363281 Z M 481.515625 345.488281 C 480.5625 345.558594 479.894531 346.050781 479.929688 347.074219 C 479.960938 348.03125 480.625 348.445312 481.523438 348.394531 C 482.484375 348.34375 483.074219 347.832031 483.136719 346.761719 C 482.988281 345.890625 482.433594 345.425781 481.515625 345.488281 Z M 402.328125 257.78125 C 401.289062 257.855469 400.734375 258.566406 400.742188 259.59375 C 400.75 260.453125 401.296875 260.953125 402.140625 260.9375 C 403.199219 260.917969 403.53125 260.171875 403.589844 259.140625 C 403.492188 258.464844 403.269531 257.714844 402.328125 257.78125 Z M 462.597656 323.421875 C 462.589844 322.558594 462.046875 322.070312 461.1875 322.085938 C 460.285156 322.101562 459.648438 322.582031 459.695312 323.535156 C 459.738281 324.386719 460.375 324.765625 461.199219 324.820312 C 462.019531 324.703125 462.601562 324.285156 462.597656 323.421875 Z M 336.207031 266.597656 C 336.1875 267.433594 336.613281 268.03125 337.472656 268.097656 C 338.394531 268.167969 338.972656 267.65625 339.042969 266.722656 C 339.117188 265.785156 338.597656 265.269531 337.625 265.085938 C 336.800781 265.203125 336.226562 265.660156 336.207031 266.597656 Z M 313.421875 282.988281 C 313.449219 283.929688 314.027344 284.429688 314.9375 284.425781 C 315.734375 284.417969 316.179688 283.898438 316.160156 283.117188 C 316.136719 282.1875 315.5625 281.722656 314.667969 281.652344 C 313.886719 281.777344 313.398438 282.1875 313.421875 282.988281 Z M 471.675781 349.03125 C 471.671875 349.804688 472.144531 350.289062 472.933594 350.304688 C 473.789062 350.320312 474.320312 349.839844 474.378906 349 C 474.4375 348.160156 473.839844 347.851562 473.09375 347.742188 C 472.277344 347.785156 471.679688 348.140625 471.675781 349.03125 Z M 260.8125 343.828125 C 260.019531 343.890625 259.5625 344.367188 259.628906 345.167969 C 259.691406 345.976562 260.257812 346.332031 261.023438 346.324219 C 261.820312 346.316406 262.269531 345.890625 262.316406 345.085938 C 262.179688 344.222656 261.683594 343.761719 260.8125 343.828125 Z M 468.144531 318.441406 C 467.285156 318.453125 466.742188 318.941406 466.789062 319.824219 C 466.828125 320.554688 467.347656 320.925781 468.0625 320.90625 C 468.867188 320.882812 469.273438 320.394531 469.347656 319.621094 C 469.265625 318.890625 468.875 318.433594 468.144531 318.441406 Z M 339.390625 272.160156 C 338.601562 272.191406 338.164062 272.691406 338.179688 273.480469 C 338.195312 274.210938 338.632812 274.625 339.355469 274.632812 C 340.148438 274.640625 340.582031 274.1875 340.699219 273.328125 C 340.578125 272.648438 340.203125 272.125 339.390625 272.160156 Z M 423.714844 277.140625 C 423.003906 277.148438 422.53125 277.519531 422.480469 278.265625 C 422.433594 279.003906 422.832031 279.480469 423.550781 279.523438 C 424.351562 279.574219 424.777344 279.074219 424.917969 278.253906 C 424.820312 277.59375 424.464844 277.132812 423.714844 277.140625 Z M 423.714844 277.140625 " fill-opacity="1" fill-rule="nonzero"/></g><g fill="#db636f" fill-opacity="1"><g transform="translate(124.498986, 505.630843)"><g><path d="M 1.5 0 C 1.34375 0 1.265625 -0.191406 1.265625 -0.578125 L 1.265625 -0.921875 C 1.265625 -1.078125 1.34375 -1.15625 1.5 -1.15625 C 1.613281 -1.15625 1.796875 -1.171875 2.046875 -1.203125 C 2.296875 -1.242188 2.554688 -1.285156 2.828125 -1.328125 C 3.097656 -1.367188 3.347656 -1.410156 3.578125 -1.453125 C 3.816406 -1.503906 3.984375 -1.539062 4.078125 -1.5625 C 6.046875 -2 7.03125 -3.117188 7.03125 -4.921875 L 7.03125 -35.4375 C 7.03125 -37.09375 6.363281 -38.269531 5.03125 -38.96875 C 4.238281 -39.394531 3.390625 -39.609375 2.484375 -39.609375 L 1.390625 -39.609375 C 1.234375 -39.609375 1.15625 -39.679688 1.15625 -39.828125 L 1.15625 -40.53125 C 1.15625 -40.6875 1.269531 -40.765625 1.5 -40.765625 L 17.375 -41.1875 L 20.296875 -41.1875 C 23.703125 -40.957031 26.554688 -39.71875 28.859375 -37.46875 C 31.160156 -35.226562 32.3125 -32.460938 32.3125 -29.171875 C 32.3125 -25.890625 30.945312 -23.332031 28.21875 -21.5 C 27.363281 -20.945312 26.445312 -20.445312 25.46875 -20 L 34.234375 -5.6875 C 35.753906 -3.1875 37.796875 -1.425781 40.359375 -0.40625 C 40.566406 -0.34375 40.671875 -0.207031 40.671875 0 C 40.671875 0.476562 40.351562 0.71875 39.71875 0.71875 C 35.382812 0.71875 31.9375 -0.925781 29.375 -4.21875 C 28.8125 -4.945312 28.25 -5.765625 27.6875 -6.671875 L 20.203125 -18.421875 L 13.328125 -18.734375 L 13.09375 -18.734375 C 12.800781 -18.734375 12.65625 -18.597656 12.65625 -18.328125 L 12.65625 -5 C 12.65625 -3.9375 12.953125 -3.144531 13.546875 -2.625 C 14.148438 -2.101562 15.1875 -1.75 16.65625 -1.5625 C 17.039062 -1.5 17.507812 -1.414062 18.0625 -1.3125 C 18.625 -1.207031 19.003906 -1.15625 19.203125 -1.15625 C 19.410156 -1.15625 19.515625 -1.078125 19.515625 -0.921875 L 19.515625 -0.234375 C 19.515625 -0.078125 19.4375 0 19.28125 0 Z M 15 -39.671875 C 14.769531 -39.660156 14.523438 -39.648438 14.265625 -39.640625 C 14.003906 -39.628906 13.671875 -39.617188 13.265625 -39.609375 C 12.859375 -39.609375 12.65625 -39.453125 12.65625 -39.140625 L 12.65625 -21.625 L 12.71875 -20.75 C 12.78125 -20.351562 12.960938 -20.144531 13.265625 -20.125 L 16.21875 -19.953125 C 21.632812 -19.953125 24.898438 -21.878906 26.015625 -25.734375 C 26.378906 -26.941406 26.5625 -28.328125 26.5625 -29.890625 C 26.5625 -32.929688 25.613281 -35.328125 23.71875 -37.078125 C 21.820312 -38.835938 19.398438 -39.71875 16.453125 -39.71875 C 16.179688 -39.71875 15.925781 -39.710938 15.6875 -39.703125 C 15.457031 -39.691406 15.226562 -39.679688 15 -39.671875 Z M 15 -39.671875 "/></g></g></g><g fill="#db636f" fill-opacity="1"><g transform="translate(169.072219, 505.630843)"><g><path d="M 37.0625 -2.484375 C 35.382812 -1.460938 33.550781 -0.660156 31.5625 -0.078125 C 29.582031 0.492188 27.820312 0.78125 26.28125 0.78125 C 23.113281 0.78125 20.097656 0.269531 17.234375 -0.75 C 13.296875 -2.175781 10.132812 -4.285156 7.75 -7.078125 C 4.707031 -10.648438 3.1875 -15.171875 3.1875 -20.640625 C 3.1875 -24.585938 4.195312 -28.1875 6.21875 -31.4375 C 8.238281 -34.6875 11.035156 -37.253906 14.609375 -39.140625 C 18.179688 -41.023438 22.023438 -41.96875 26.140625 -41.96875 C 30.253906 -41.96875 33.941406 -41.050781 37.203125 -39.21875 C 40.460938 -37.394531 43.070312 -34.882812 45.03125 -31.6875 C 47 -28.488281 47.984375 -25.023438 47.984375 -21.296875 C 47.984375 -17.566406 47.007812 -14.019531 45.0625 -10.65625 C 43.113281 -7.289062 40.445312 -4.566406 37.0625 -2.484375 Z M 9.25 -21.5625 C 9.25 -18.363281 9.957031 -15.1875 11.375 -12.03125 C 12.789062 -8.882812 14.816406 -6.316406 17.453125 -4.328125 C 20.097656 -2.347656 23.15625 -1.359375 26.625 -1.359375 C 31.5625 -1.359375 35.40625 -3.25 38.15625 -7.03125 C 40.644531 -10.4375 41.890625 -14.789062 41.890625 -20.09375 C 41.890625 -25.394531 40.363281 -29.960938 37.3125 -33.796875 C 35.832031 -35.660156 34.015625 -37.15625 31.859375 -38.28125 C 29.710938 -39.414062 27.546875 -39.984375 25.359375 -39.984375 C 23.171875 -39.984375 21.378906 -39.738281 19.984375 -39.25 C 18.585938 -38.769531 17.320312 -38.109375 16.1875 -37.265625 C 15.050781 -36.429688 14.046875 -35.4375 13.171875 -34.28125 C 12.304688 -33.125 11.585938 -31.875 11.015625 -30.53125 C 9.835938 -27.75 9.25 -24.757812 9.25 -21.5625 Z M 9.25 -21.5625 "/></g></g></g><g fill="#db636f" fill-opacity="1"><g transform="translate(223.792072, 505.630843)"><g><path d="M 24.390625 -40.40625 C 24.585938 -40.40625 24.6875 -40.195312 24.6875 -39.78125 L 25.4375 -33.625 C 25.507812 -33.238281 25.546875 -32.988281 25.546875 -32.875 C 25.546875 -32.769531 25.394531 -32.71875 25.09375 -32.71875 C 24.800781 -32.71875 24.613281 -32.753906 24.53125 -32.828125 C 24.457031 -32.910156 24.382812 -33.039062 24.3125 -33.21875 C 24.238281 -33.40625 24.144531 -33.613281 24.03125 -33.84375 C 23.925781 -34.082031 23.816406 -34.316406 23.703125 -34.546875 C 23.296875 -35.429688 22.660156 -36.304688 21.796875 -37.171875 C 19.671875 -39.210938 17.28125 -40.234375 14.625 -40.234375 C 13.03125 -40.234375 11.519531 -39.710938 10.09375 -38.671875 C 8.664062 -37.640625 7.953125 -36.414062 7.953125 -35 C 7.953125 -33.582031 8.21875 -32.351562 8.75 -31.3125 C 9.28125 -30.269531 9.976562 -29.304688 10.84375 -28.421875 C 11.707031 -27.535156 12.695312 -26.6875 13.8125 -25.875 C 14.9375 -25.0625 16.078125 -24.242188 17.234375 -23.421875 C 20.296875 -21.273438 22.472656 -19.441406 23.765625 -17.921875 C 25.785156 -15.566406 26.882812 -12.925781 27.0625 -10 C 27.0625 -6.726562 25.800781 -4.113281 23.28125 -2.15625 C 20.769531 -0.195312 17.847656 0.78125 14.515625 0.78125 C 12.367188 0.78125 10.664062 0.5625 9.40625 0.125 C 8.144531 -0.300781 7.273438 -0.609375 6.796875 -0.796875 C 6.316406 -0.992188 5.960938 -1.09375 5.734375 -1.09375 C 5.515625 -1.09375 5.375 -1.082031 5.3125 -1.0625 L 3.90625 -0.78125 C 3.65625 -0.78125 3.5 -0.984375 3.4375 -1.390625 C 2.882812 -6.171875 2.609375 -8.707031 2.609375 -9 C 2.609375 -9.300781 2.628906 -9.503906 2.671875 -9.609375 C 2.722656 -9.710938 2.851562 -9.765625 3.0625 -9.765625 C 3.601562 -9.765625 4.09375 -8.992188 4.53125 -7.453125 C 6.5625 -3.117188 9.925781 -0.953125 14.625 -0.953125 C 16.78125 -0.953125 18.625 -1.609375 20.15625 -2.921875 C 21.695312 -4.234375 22.46875 -5.9375 22.46875 -8.03125 C 22.46875 -11.382812 20.460938 -14.507812 16.453125 -17.40625 C 15.316406 -18.207031 13.675781 -19.332031 11.53125 -20.78125 C 9.394531 -22.226562 7.691406 -23.675781 6.421875 -25.125 C 4.429688 -27.351562 3.4375 -29.84375 3.4375 -32.59375 C 3.4375 -35.34375 4.53125 -37.59375 6.71875 -39.34375 C 8.90625 -41.09375 11.414062 -41.96875 14.25 -41.96875 C 15.71875 -41.96875 17.332031 -41.71875 19.09375 -41.21875 C 20.851562 -40.71875 22.082031 -40.378906 22.78125 -40.203125 Z M 24.390625 -40.40625 "/></g></g></g><g fill="#db636f" fill-opacity="1"><g transform="translate(257.004553, 505.630843)"><g><path d="M 42.125 -5.234375 C 42.125 -2.628906 43.925781 -1.269531 47.53125 -1.15625 C 47.675781 -1.15625 47.75 -1.078125 47.75 -0.921875 L 47.75 -0.234375 C 47.75 -0.078125 47.675781 0 47.53125 0 L 29.140625 0 C 28.984375 0 28.90625 -0.078125 28.90625 -0.234375 L 28.90625 -0.921875 C 28.90625 -1.078125 29.382812 -1.15625 30.34375 -1.15625 C 31.3125 -1.15625 32.414062 -1.367188 33.65625 -1.796875 C 35.539062 -2.410156 36.484375 -3.453125 36.484375 -4.921875 L 36.484375 -18.703125 C 36.484375 -18.898438 36.453125 -19.023438 36.390625 -19.078125 C 36.335938 -19.140625 36.210938 -19.171875 36.015625 -19.171875 L 13.234375 -19.171875 C 13.046875 -19.171875 12.921875 -19.140625 12.859375 -19.078125 C 12.804688 -19.023438 12.78125 -18.898438 12.78125 -18.703125 L 12.78125 -4.625 C 12.78125 -2.3125 14.484375 -1.15625 17.890625 -1.15625 C 18.046875 -1.15625 18.125 -1.078125 18.125 -0.921875 L 18.125 -0.234375 C 18.125 -0.078125 18.054688 0 17.921875 0 L 1.96875 0 C 1.8125 0 1.734375 -0.078125 1.734375 -0.234375 L 1.734375 -0.921875 C 1.734375 -1.078125 1.925781 -1.15625 2.3125 -1.15625 C 5.53125 -1.15625 7.140625 -2.535156 7.140625 -5.296875 L 7.140625 -36.140625 C 7.140625 -38.390625 5.800781 -39.582031 3.125 -39.71875 C 2.71875 -39.738281 2.515625 -39.828125 2.515625 -39.984375 L 2.515625 -40.53125 C 2.515625 -40.6875 2.582031 -40.765625 2.71875 -40.765625 L 17.234375 -40.765625 C 17.378906 -40.765625 17.453125 -40.6875 17.453125 -40.53125 L 17.453125 -39.984375 C 17.453125 -39.867188 17.269531 -39.8125 16.90625 -39.8125 C 14.15625 -39.8125 12.78125 -38.453125 12.78125 -35.734375 L 12.78125 -22.375 C 12.78125 -22.175781 12.804688 -22.046875 12.859375 -21.984375 C 12.921875 -21.929688 13.046875 -21.90625 13.234375 -21.90625 L 36.015625 -21.90625 C 36.210938 -21.90625 36.335938 -21.929688 36.390625 -21.984375 C 36.453125 -22.046875 36.484375 -22.175781 36.484375 -22.375 L 36.484375 -36.1875 C 36.441406 -36.363281 36.414062 -36.523438 36.40625 -36.671875 C 36.394531 -36.816406 36.363281 -37.039062 36.3125 -37.34375 C 36.175781 -38 35.488281 -38.535156 34.25 -38.953125 C 33.019531 -39.367188 31.625 -39.632812 30.0625 -39.75 C 29.90625 -39.75 29.828125 -39.828125 29.828125 -39.984375 L 29.828125 -40.53125 C 29.828125 -40.6875 29.894531 -40.765625 30.03125 -40.765625 L 46.71875 -40.765625 C 46.875 -40.765625 46.953125 -40.6875 46.953125 -40.53125 L 46.953125 -39.984375 C 46.953125 -39.867188 46.765625 -39.8125 46.390625 -39.8125 C 43.546875 -39.8125 42.125 -38.453125 42.125 -35.734375 Z M 42.125 -5.234375 "/></g></g></g><g fill="#db636f" fill-opacity="1"><g transform="translate(310.047756, 505.630843)"><g><path d="M 15.375 -0.234375 C 15.375 -0.078125 15.296875 0 15.140625 0 L 0.375 0 C 0.21875 0 0.140625 -0.078125 0.140625 -0.234375 L 0.140625 -0.921875 C 0.140625 -1.078125 0.265625 -1.15625 0.515625 -1.15625 C 3.160156 -1.269531 4.945312 -2.675781 5.875 -5.375 L 17.65625 -39.515625 C 17.675781 -39.554688 17.6875 -39.601562 17.6875 -39.65625 L 17.375 -40.609375 C 17.375 -40.710938 17.410156 -40.765625 17.484375 -40.765625 L 23.265625 -40.765625 C 23.304688 -40.742188 23.359375 -40.722656 23.421875 -40.703125 C 23.492188 -40.679688 23.550781 -40.625 23.59375 -40.53125 L 35.8125 -6.21875 C 36.082031 -5.695312 36.300781 -5.222656 36.46875 -4.796875 C 36.632812 -4.367188 36.820312 -3.984375 37.03125 -3.640625 C 37.488281 -2.847656 38.25 -2.242188 39.3125 -1.828125 C 40.195312 -1.378906 41.007812 -1.15625 41.75 -1.15625 C 41.894531 -1.15625 41.96875 -1.066406 41.96875 -0.890625 L 41.96875 -0.234375 C 41.96875 -0.078125 41.894531 0 41.75 0 L 24.046875 0 C 23.890625 0 23.8125 -0.078125 23.8125 -0.234375 L 23.8125 -0.921875 C 23.8125 -1.078125 24.164062 -1.171875 24.875 -1.203125 C 25.59375 -1.242188 26.1875 -1.285156 26.65625 -1.328125 C 29.332031 -1.617188 30.671875 -2.523438 30.671875 -4.046875 C 30.671875 -4.160156 30.648438 -4.296875 30.609375 -4.453125 L 26.25 -16.765625 C 26.226562 -16.804688 26.1875 -16.894531 26.125 -17.03125 C 25.894531 -17.6875 25.492188 -18.015625 24.921875 -18.015625 L 14.65625 -18.015625 C 14.070312 -18.015625 13.617188 -17.695312 13.296875 -17.0625 C 13.234375 -16.925781 13.203125 -16.847656 13.203125 -16.828125 L 8.875 -4.140625 L 8.875 -3.875 C 8.875 -3.375 9.132812 -2.921875 9.65625 -2.515625 C 10.832031 -1.609375 12.410156 -1.15625 14.390625 -1.15625 L 15.140625 -1.15625 C 15.296875 -1.15625 15.375 -1.078125 15.375 -0.921875 Z M 23.9375 -21.21875 C 24.28125 -21.21875 24.453125 -21.363281 24.453125 -21.65625 C 24.453125 -21.8125 24.414062 -21.984375 24.34375 -22.171875 L 20.03125 -34.03125 C 19.84375 -34.550781 19.695312 -34.8125 19.59375 -34.8125 C 19.5 -34.8125 19.347656 -34.539062 19.140625 -34 L 15.09375 -22.171875 C 15.007812 -21.984375 14.96875 -21.773438 14.96875 -21.546875 C 14.96875 -21.328125 15.113281 -21.21875 15.40625 -21.21875 Z M 23.9375 -21.21875 "/></g></g></g><g fill="#db636f" fill-opacity="1"><g transform="translate(355.719476, 505.630843)"><g><path d="M 1.96875 0 C 1.8125 0 1.734375 -0.078125 1.734375 -0.234375 L 1.734375 -0.921875 C 1.734375 -1.078125 1.832031 -1.15625 2.03125 -1.15625 L 2.6875 -1.15625 C 3.75 -1.15625 4.472656 -1.253906 4.859375 -1.453125 C 6.285156 -2.140625 7 -4.046875 7 -7.171875 L 7 -37.203125 C 7 -38.492188 5.742188 -39.265625 3.234375 -39.515625 C 2.679688 -39.578125 2.289062 -39.609375 2.0625 -39.609375 C 1.84375 -39.609375 1.734375 -39.679688 1.734375 -39.828125 L 1.734375 -40.53125 C 1.734375 -40.6875 1.8125 -40.765625 1.96875 -40.765625 L 12.546875 -40.765625 L 39.984375 -10.4375 C 40.078125 -10.34375 40.140625 -10.269531 40.171875 -10.21875 C 40.210938 -10.164062 40.273438 -10.140625 40.359375 -10.140625 C 40.453125 -10.140625 40.5 -10.226562 40.5 -10.40625 L 40.5 -30.328125 C 40.5 -34.160156 40.179688 -36.664062 39.546875 -37.84375 C 38.910156 -39.019531 37.628906 -39.609375 35.703125 -39.609375 L 34.234375 -39.609375 C 34.078125 -39.609375 34 -39.679688 34 -39.828125 L 34 -40.53125 C 34 -40.6875 34.078125 -40.765625 34.234375 -40.765625 L 49.265625 -40.765625 C 49.410156 -40.765625 49.484375 -40.6875 49.484375 -40.53125 L 49.484375 -39.828125 C 49.484375 -39.679688 49.195312 -39.609375 48.625 -39.609375 C 48.0625 -39.609375 47.128906 -39.28125 45.828125 -38.625 C 44.523438 -37.96875 43.875 -37.15625 43.875 -36.1875 L 43.875 -0.84375 C 43.875 -0.414062 43.816406 -0.113281 43.703125 0.0625 C 43.585938 0.25 43.3125 0.34375 42.875 0.34375 C 42.445312 0.34375 42.125 0.253906 41.90625 0.078125 C 41.695312 -0.0859375 41.453125 -0.335938 41.171875 -0.671875 L 11.359375 -33.703125 C 11.171875 -33.898438 11 -34 10.84375 -34 C 10.75 -34 10.703125 -33.898438 10.703125 -33.703125 L 10.703125 -4.859375 C 10.703125 -3.097656 12.085938 -1.941406 14.859375 -1.390625 C 15.628906 -1.234375 16.21875 -1.15625 16.625 -1.15625 C 17.03125 -1.15625 17.234375 -1.078125 17.234375 -0.921875 L 17.234375 -0.234375 C 17.234375 -0.078125 17.15625 0 17 0 Z M 1.96875 0 "/></g></g></g><g fill="#db636f" fill-opacity="1"><g transform="translate(409.774451, 505.630843)"><g/></g></g><g fill="#db636f" fill-opacity="1"><g transform="translate(429.22682, 505.630843)"><g><path d="M 1.5 0 C 1.34375 0 1.265625 -0.191406 1.265625 -0.578125 L 1.265625 -0.921875 C 1.265625 -1.078125 1.34375 -1.15625 1.5 -1.15625 C 1.613281 -1.15625 1.796875 -1.171875 2.046875 -1.203125 C 2.296875 -1.242188 2.554688 -1.285156 2.828125 -1.328125 C 3.097656 -1.367188 3.347656 -1.410156 3.578125 -1.453125 C 3.816406 -1.503906 3.984375 -1.539062 4.078125 -1.5625 C 6.046875 -2 7.03125 -3.117188 7.03125 -4.921875 L 7.03125 -35.4375 C 7.03125 -37.09375 6.363281 -38.269531 5.03125 -38.96875 C 4.238281 -39.394531 3.390625 -39.609375 2.484375 -39.609375 L 1.390625 -39.609375 C 1.234375 -39.609375 1.15625 -39.679688 1.15625 -39.828125 L 1.15625 -40.53125 C 1.15625 -40.6875 1.269531 -40.765625 1.5 -40.765625 L 17.375 -41.1875 L 20.296875 -41.1875 C 23.703125 -40.957031 26.554688 -39.71875 28.859375 -37.46875 C 31.160156 -35.226562 32.3125 -32.460938 32.3125 -29.171875 C 32.3125 -25.890625 30.945312 -23.332031 28.21875 -21.5 C 27.363281 -20.945312 26.445312 -20.445312 25.46875 -20 L 34.234375 -5.6875 C 35.753906 -3.1875 37.796875 -1.425781 40.359375 -0.40625 C 40.566406 -0.34375 40.671875 -0.207031 40.671875 0 C 40.671875 0.476562 40.351562 0.71875 39.71875 0.71875 C 35.382812 0.71875 31.9375 -0.925781 29.375 -4.21875 C 28.8125 -4.945312 28.25 -5.765625 27.6875 -6.671875 L 20.203125 -18.421875 L 13.328125 -18.734375 L 13.09375 -18.734375 C 12.800781 -18.734375 12.65625 -18.597656 12.65625 -18.328125 L 12.65625 -5 C 12.65625 -3.9375 12.953125 -3.144531 13.546875 -2.625 C 14.148438 -2.101562 15.1875 -1.75 16.65625 -1.5625 C 17.039062 -1.5 17.507812 -1.414062 18.0625 -1.3125 C 18.625 -1.207031 19.003906 -1.15625 19.203125 -1.15625 C 19.410156 -1.15625 19.515625 -1.078125 19.515625 -0.921875 L 19.515625 -0.234375 C 19.515625 -0.078125 19.4375 0 19.28125 0 Z M 15 -39.671875 C 14.769531 -39.660156 14.523438 -39.648438 14.265625 -39.640625 C 14.003906 -39.628906 13.671875 -39.617188 13.265625 -39.609375 C 12.859375 -39.609375 12.65625 -39.453125 12.65625 -39.140625 L 12.65625 -21.625 L 12.71875 -20.75 C 12.78125 -20.351562 12.960938 -20.144531 13.265625 -20.125 L 16.21875 -19.953125 C 21.632812 -19.953125 24.898438 -21.878906 26.015625 -25.734375 C 26.378906 -26.941406 26.5625 -28.328125 26.5625 -29.890625 C 26.5625 -32.929688 25.613281 -35.328125 23.71875 -37.078125 C 21.820312 -38.835938 19.398438 -39.71875 16.453125 -39.71875 C 16.179688 -39.71875 15.925781 -39.710938 15.6875 -39.703125 C 15.457031 -39.691406 15.226562 -39.679688 15 -39.671875 Z M 15 -39.671875 "/></g></g></g><g fill="#db636f" fill-opacity="1"><g transform="translate(473.800046, 505.630843)"><g><path d="M 37.0625 -2.484375 C 35.382812 -1.460938 33.550781 -0.660156 31.5625 -0.078125 C 29.582031 0.492188 27.820312 0.78125 26.28125 0.78125 C 23.113281 0.78125 20.097656 0.269531 17.234375 -0.75 C 13.296875 -2.175781 10.132812 -4.285156 7.75 -7.078125 C 4.707031 -10.648438 3.1875 -15.171875 3.1875 -20.640625 C 3.1875 -24.585938 4.195312 -28.1875 6.21875 -31.4375 C 8.238281 -34.6875 11.035156 -37.253906 14.609375 -39.140625 C 18.179688 -41.023438 22.023438 -41.96875 26.140625 -41.96875 C 30.253906 -41.96875 33.941406 -41.050781 37.203125 -39.21875 C 40.460938 -37.394531 43.070312 -34.882812 45.03125 -31.6875 C 47 -28.488281 47.984375 -25.023438 47.984375 -21.296875 C 47.984375 -17.566406 47.007812 -14.019531 45.0625 -10.65625 C 43.113281 -7.289062 40.445312 -4.566406 37.0625 -2.484375 Z M 9.25 -21.5625 C 9.25 -18.363281 9.957031 -15.1875 11.375 -12.03125 C 12.789062 -8.882812 14.816406 -6.316406 17.453125 -4.328125 C 20.097656 -2.347656 23.15625 -1.359375 26.625 -1.359375 C 31.5625 -1.359375 35.40625 -3.25 38.15625 -7.03125 C 40.644531 -10.4375 41.890625 -14.789062 41.890625 -20.09375 C 41.890625 -25.394531 40.363281 -29.960938 37.3125 -33.796875 C 35.832031 -35.660156 34.015625 -37.15625 31.859375 -38.28125 C 29.710938 -39.414062 27.546875 -39.984375 25.359375 -39.984375 C 23.171875 -39.984375 21.378906 -39.738281 19.984375 -39.25 C 18.585938 -38.769531 17.320312 -38.109375 16.1875 -37.265625 C 15.050781 -36.429688 14.046875 -35.4375 13.171875 -34.28125 C 12.304688 -33.125 11.585938 -31.875 11.015625 -30.53125 C 9.835938 -27.75 9.25 -24.757812 9.25 -21.5625 Z M 9.25 -21.5625 "/></g></g></g><g fill="#db636f" fill-opacity="1"><g transform="translate(528.519899, 505.630843)"><g><path d="M 37.0625 -2.484375 C 35.382812 -1.460938 33.550781 -0.660156 31.5625 -0.078125 C 29.582031 0.492188 27.820312 0.78125 26.28125 0.78125 C 23.113281 0.78125 20.097656 0.269531 17.234375 -0.75 C 13.296875 -2.175781 10.132812 -4.285156 7.75 -7.078125 C 4.707031 -10.648438 3.1875 -15.171875 3.1875 -20.640625 C 3.1875 -24.585938 4.195312 -28.1875 6.21875 -31.4375 C 8.238281 -34.6875 11.035156 -37.253906 14.609375 -39.140625 C 18.179688 -41.023438 22.023438 -41.96875 26.140625 -41.96875 C 30.253906 -41.96875 33.941406 -41.050781 37.203125 -39.21875 C 40.460938 -37.394531 43.070312 -34.882812 45.03125 -31.6875 C 47 -28.488281 47.984375 -25.023438 47.984375 -21.296875 C 47.984375 -17.566406 47.007812 -14.019531 45.0625 -10.65625 C 43.113281 -7.289062 40.445312 -4.566406 37.0625 -2.484375 Z M 9.25 -21.5625 C 9.25 -18.363281 9.957031 -15.1875 11.375 -12.03125 C 12.789062 -8.882812 14.816406 -6.316406 17.453125 -4.328125 C 20.097656 -2.347656 23.15625 -1.359375 26.625 -1.359375 C 31.5625 -1.359375 35.40625 -3.25 38.15625 -7.03125 C 40.644531 -10.4375 41.890625 -14.789062 41.890625 -20.09375 C 41.890625 -25.394531 40.363281 -29.960938 37.3125 -33.796875 C 35.832031 -35.660156 34.015625 -37.15625 31.859375 -38.28125 C 29.710938 -39.414062 27.546875 -39.984375 25.359375 -39.984375 C 23.171875 -39.984375 21.378906 -39.738281 19.984375 -39.25 C 18.585938 -38.769531 17.320312 -38.109375 16.1875 -37.265625 C 15.050781 -36.429688 14.046875 -35.4375 13.171875 -34.28125 C 12.304688 -33.125 11.585938 -31.875 11.015625 -30.53125 C 9.835938 -27.75 9.25 -24.757812 9.25 -21.5625 Z M 9.25 -21.5625 "/></g></g></g><g fill="#db636f" fill-opacity="1"><g transform="translate(583.239775, 505.630843)"><g><path d="M 2.75 0 C 2.394531 0 2.21875 -0.328125 2.21875 -0.984375 C 2.21875 -1.640625 2.375 -2.140625 2.6875 -2.484375 L 29.71875 -37.4375 C 29.789062 -37.53125 29.828125 -37.648438 29.828125 -37.796875 C 29.828125 -37.941406 29.632812 -38.015625 29.25 -38.015625 L 11.703125 -38.015625 C 10.109375 -38.015625 8.8125 -37.460938 7.8125 -36.359375 C 7.457031 -35.992188 7.195312 -35.578125 7.03125 -35.109375 C 6.875 -34.640625 6.679688 -33.832031 6.453125 -32.6875 C 6.234375 -31.550781 6.082031 -30.941406 6 -30.859375 C 5.925781 -30.773438 5.75 -30.734375 5.46875 -30.734375 C 5.195312 -30.734375 5.019531 -30.789062 4.9375 -30.90625 L 5.375 -39.78125 C 5.375 -40.4375 5.597656 -40.765625 6.046875 -40.765625 L 37.4375 -40.765625 C 37.738281 -40.765625 37.890625 -40.453125 37.890625 -39.828125 C 37.890625 -39.210938 37.765625 -38.722656 37.515625 -38.359375 L 11.53125 -4.734375 C 11.476562 -4.640625 11.367188 -4.476562 11.203125 -4.25 C 11.035156 -4.019531 10.953125 -3.828125 10.953125 -3.671875 C 10.953125 -3.148438 11.394531 -2.890625 12.28125 -2.890625 L 32.671875 -2.890625 C 33.585938 -2.890625 34.519531 -3.28125 35.46875 -4.0625 C 36.414062 -4.84375 37.09375 -5.882812 37.5 -7.1875 C 37.914062 -8.5 38.203125 -10.082031 38.359375 -11.9375 C 38.421875 -12.226562 38.613281 -12.375 38.9375 -12.375 C 39.269531 -12.375 39.4375 -12.257812 39.4375 -12.03125 L 39.4375 -10.671875 L 38.828125 -1.703125 C 38.804688 -1.492188 38.796875 -1.289062 38.796875 -1.09375 C 38.796875 -0.363281 38.523438 0 37.984375 0 Z M 2.75 0 "/></g></g></g><g fill="#db636f" fill-opacity="1"><g transform="translate(215.129139, 550.376446)"><g><path d="M 4.234375 -5.71875 L 6.578125 -11.5 L 8.21875 -11.5 L 4.953125 -4.28125 L 4.953125 0 L 3.5 0 L 3.5 -4.28125 L 0.234375 -11.5 L 1.875 -11.5 Z M 4.234375 -5.71875 "/></g></g></g><g fill="#db636f" fill-opacity="1"><g transform="translate(227.219312, 550.376446)"><g><path d="M 8.71875 -4.734375 C 8.71875 -3.171875 8.382812 -1.960938 7.71875 -1.109375 C 7.050781 -0.265625 6.097656 0.15625 4.859375 0.15625 C 3.679688 0.15625 2.75 -0.253906 2.0625 -1.078125 C 1.375 -1.898438 1.015625 -3.066406 0.984375 -4.578125 L 0.984375 -6.734375 C 0.984375 -8.273438 1.320312 -9.476562 2 -10.34375 C 2.6875 -11.21875 3.632812 -11.65625 4.84375 -11.65625 C 6.0625 -11.65625 7.003906 -11.238281 7.671875 -10.40625 C 8.347656 -9.570312 8.695312 -8.378906 8.71875 -6.828125 Z M 7.265625 -6.75 C 7.265625 -7.96875 7.066406 -8.875 6.671875 -9.46875 C 6.273438 -10.0625 5.664062 -10.359375 4.84375 -10.359375 C 4.050781 -10.359375 3.453125 -10.054688 3.046875 -9.453125 C 2.640625 -8.847656 2.429688 -7.960938 2.421875 -6.796875 L 2.421875 -4.734375 C 2.421875 -3.566406 2.625 -2.671875 3.03125 -2.046875 C 3.4375 -1.429688 4.046875 -1.125 4.859375 -1.125 C 5.671875 -1.125 6.269531 -1.40625 6.65625 -1.96875 C 7.050781 -2.539062 7.253906 -3.414062 7.265625 -4.59375 Z M 7.265625 -6.75 "/></g></g></g><g fill="#db636f" fill-opacity="1"><g transform="translate(240.541642, 550.376446)"><g><path d="M 8.09375 -11.5 L 8.09375 -3.328125 C 8.082031 -2.234375 7.765625 -1.378906 7.140625 -0.765625 C 6.523438 -0.148438 5.660156 0.15625 4.546875 0.15625 C 3.410156 0.15625 2.539062 -0.144531 1.9375 -0.75 C 1.34375 -1.351562 1.039062 -2.210938 1.03125 -3.328125 L 1.03125 -11.5 L 2.46875 -11.5 L 2.46875 -3.375 C 2.46875 -2.601562 2.628906 -2.023438 2.953125 -1.640625 C 3.285156 -1.265625 3.816406 -1.078125 4.546875 -1.078125 C 5.285156 -1.078125 5.816406 -1.265625 6.140625 -1.640625 C 6.472656 -2.023438 6.640625 -2.601562 6.640625 -3.375 L 6.640625 -11.5 Z M 8.09375 -11.5 "/></g></g></g><g fill="#db636f" fill-opacity="1"><g transform="translate(253.232097, 550.376446)"><g><path d="M 4.71875 -4.65625 L 2.6875 -4.65625 L 2.6875 0 L 1.234375 0 L 1.234375 -11.5 L 4.46875 -11.5 C 5.59375 -11.5 6.441406 -11.203125 7.015625 -10.609375 C 7.597656 -10.023438 7.890625 -9.164062 7.890625 -8.03125 C 7.890625 -7.320312 7.734375 -6.703125 7.421875 -6.171875 C 7.109375 -5.648438 6.664062 -5.253906 6.09375 -4.984375 L 8.3125 -0.09375 L 8.3125 0 L 6.765625 0 Z M 2.6875 -5.890625 L 4.453125 -5.890625 C 5.054688 -5.890625 5.535156 -6.082031 5.890625 -6.46875 C 6.253906 -6.863281 6.4375 -7.382812 6.4375 -8.03125 C 6.4375 -9.507812 5.769531 -10.25 4.4375 -10.25 L 2.6875 -10.25 Z M 2.6875 -5.890625 "/></g></g></g><g fill="#db636f" fill-opacity="1"><g transform="translate(265.42495, 550.376446)"><g/></g></g><g fill="#db636f" fill-opacity="1"><g transform="translate(272.736565, 550.376446)"><g><path d="M 5.203125 -11.5 L 6.65625 -11.5 L 6.65625 -3.359375 C 6.65625 -2.253906 6.375 -1.390625 5.8125 -0.765625 C 5.25 -0.148438 4.492188 0.15625 3.546875 0.15625 C 2.578125 0.15625 1.820312 -0.132812 1.28125 -0.71875 C 0.738281 -1.3125 0.46875 -2.128906 0.46875 -3.171875 L 1.90625 -3.171875 C 1.90625 -2.515625 2.050781 -2 2.34375 -1.625 C 2.632812 -1.257812 3.035156 -1.078125 3.546875 -1.078125 C 4.046875 -1.078125 4.445312 -1.273438 4.75 -1.671875 C 5.050781 -2.078125 5.203125 -2.640625 5.203125 -3.359375 Z M 5.203125 -11.5 "/></g></g></g><g fill="#db636f" fill-opacity="1"><g transform="translate(284.163267, 550.376446)"><g><path d="M 8.71875 -4.734375 C 8.71875 -3.171875 8.382812 -1.960938 7.71875 -1.109375 C 7.050781 -0.265625 6.097656 0.15625 4.859375 0.15625 C 3.679688 0.15625 2.75 -0.253906 2.0625 -1.078125 C 1.375 -1.898438 1.015625 -3.066406 0.984375 -4.578125 L 0.984375 -6.734375 C 0.984375 -8.273438 1.320312 -9.476562 2 -10.34375 C 2.6875 -11.21875 3.632812 -11.65625 4.84375 -11.65625 C 6.0625 -11.65625 7.003906 -11.238281 7.671875 -10.40625 C 8.347656 -9.570312 8.695312 -8.378906 8.71875 -6.828125 Z M 7.265625 -6.75 C 7.265625 -7.96875 7.066406 -8.875 6.671875 -9.46875 C 6.273438 -10.0625 5.664062 -10.359375 4.84375 -10.359375 C 4.050781 -10.359375 3.453125 -10.054688 3.046875 -9.453125 C 2.640625 -8.847656 2.429688 -7.960938 2.421875 -6.796875 L 2.421875 -4.734375 C 2.421875 -3.566406 2.625 -2.671875 3.03125 -2.046875 C 3.4375 -1.429688 4.046875 -1.125 4.859375 -1.125 C 5.671875 -1.125 6.269531 -1.40625 6.65625 -1.96875 C 7.050781 -2.539062 7.253906 -3.414062 7.265625 -4.59375 Z M 7.265625 -6.75 "/></g></g></g><g fill="#db636f" fill-opacity="1"><g transform="translate(297.485599, 550.376446)"><g><path d="M 8.09375 -11.5 L 8.09375 -3.328125 C 8.082031 -2.234375 7.765625 -1.378906 7.140625 -0.765625 C 6.523438 -0.148438 5.660156 0.15625 4.546875 0.15625 C 3.410156 0.15625 2.539062 -0.144531 1.9375 -0.75 C 1.34375 -1.351562 1.039062 -2.210938 1.03125 -3.328125 L 1.03125 -11.5 L 2.46875 -11.5 L 2.46875 -3.375 C 2.46875 -2.601562 2.628906 -2.023438 2.953125 -1.640625 C 3.285156 -1.265625 3.816406 -1.078125 4.546875 -1.078125 C 5.285156 -1.078125 5.816406 -1.265625 6.140625 -1.640625 C 6.472656 -2.023438 6.640625 -2.601562 6.640625 -3.375 L 6.640625 -11.5 Z M 8.09375 -11.5 "/></g></g></g><g fill="#db636f" fill-opacity="1"><g transform="translate(310.176057, 550.376446)"><g><path d="M 4.71875 -4.65625 L 2.6875 -4.65625 L 2.6875 0 L 1.234375 0 L 1.234375 -11.5 L 4.46875 -11.5 C 5.59375 -11.5 6.441406 -11.203125 7.015625 -10.609375 C 7.597656 -10.023438 7.890625 -9.164062 7.890625 -8.03125 C 7.890625 -7.320312 7.734375 -6.703125 7.421875 -6.171875 C 7.109375 -5.648438 6.664062 -5.253906 6.09375 -4.984375 L 8.3125 -0.09375 L 8.3125 0 L 6.765625 0 Z M 2.6875 -5.890625 L 4.453125 -5.890625 C 5.054688 -5.890625 5.535156 -6.082031 5.890625 -6.46875 C 6.253906 -6.863281 6.4375 -7.382812 6.4375 -8.03125 C 6.4375 -9.507812 5.769531 -10.25 4.4375 -10.25 L 2.6875 -10.25 Z M 2.6875 -5.890625 "/></g></g></g><g fill="#db636f" fill-opacity="1"><g transform="translate(322.368912, 550.376446)"><g><path d="M 8.75 0 L 7.296875 0 L 2.6875 -8.859375 L 2.6875 0 L 1.234375 0 L 1.234375 -11.5 L 2.6875 -11.5 L 7.3125 -2.59375 L 7.3125 -11.5 L 8.75 -11.5 Z M 8.75 0 "/></g></g></g><g fill="#db636f" fill-opacity="1"><g transform="translate(335.991385, 550.376446)"><g><path d="M 6.75 -5.3125 L 2.6875 -5.3125 L 2.6875 -1.234375 L 7.421875 -1.234375 L 7.421875 0 L 1.234375 0 L 1.234375 -11.5 L 7.34375 -11.5 L 7.34375 -10.25 L 2.6875 -10.25 L 2.6875 -6.546875 L 6.75 -6.546875 Z M 6.75 -5.3125 "/></g></g></g><g fill="#db636f" fill-opacity="1"><g transform="translate(347.63135, 550.376446)"><g><path d="M 4.234375 -5.71875 L 6.578125 -11.5 L 8.21875 -11.5 L 4.953125 -4.28125 L 4.953125 0 L 3.5 0 L 3.5 -4.28125 L 0.234375 -11.5 L 1.875 -11.5 Z M 4.234375 -5.71875 "/></g></g></g><g fill="#db636f" fill-opacity="1"><g transform="translate(359.721526, 550.376446)"><g/></g></g><g fill="#db636f" fill-opacity="1"><g transform="translate(367.033147, 550.376446)"><g><path d="M 7.953125 -10.25 L 4.9375 -10.25 L 4.9375 0 L 3.484375 0 L 3.484375 -10.25 L 0.46875 -10.25 L 0.46875 -11.5 L 7.953125 -11.5 Z M 7.953125 -10.25 "/></g></g></g><g fill="#db636f" fill-opacity="1"><g transform="translate(379.060135, 550.376446)"><g><path d="M 8.71875 -4.734375 C 8.71875 -3.171875 8.382812 -1.960938 7.71875 -1.109375 C 7.050781 -0.265625 6.097656 0.15625 4.859375 0.15625 C 3.679688 0.15625 2.75 -0.253906 2.0625 -1.078125 C 1.375 -1.898438 1.015625 -3.066406 0.984375 -4.578125 L 0.984375 -6.734375 C 0.984375 -8.273438 1.320312 -9.476562 2 -10.34375 C 2.6875 -11.21875 3.632812 -11.65625 4.84375 -11.65625 C 6.0625 -11.65625 7.003906 -11.238281 7.671875 -10.40625 C 8.347656 -9.570312 8.695312 -8.378906 8.71875 -6.828125 Z M 7.265625 -6.75 C 7.265625 -7.96875 7.066406 -8.875 6.671875 -9.46875 C 6.273438 -10.0625 5.664062 -10.359375 4.84375 -10.359375 C 4.050781 -10.359375 3.453125 -10.054688 3.046875 -9.453125 C 2.640625 -8.847656 2.429688 -7.960938 2.421875 -6.796875 L 2.421875 -4.734375 C 2.421875 -3.566406 2.625 -2.671875 3.03125 -2.046875 C 3.4375 -1.429688 4.046875 -1.125 4.859375 -1.125 C 5.671875 -1.125 6.269531 -1.40625 6.65625 -1.96875 C 7.050781 -2.539062 7.253906 -3.414062 7.265625 -4.59375 Z M 7.265625 -6.75 "/></g></g></g><g fill="#db636f" fill-opacity="1"><g transform="translate(392.382457, 550.376446)"><g/></g></g><g fill="#db636f" fill-opacity="1"><g transform="translate(399.694067, 550.376446)"><g><path d="M 2.6875 -1.234375 L 7.203125 -1.234375 L 7.203125 0 L 1.234375 0 L 1.234375 -11.5 L 2.6875 -11.5 Z M 2.6875 -1.234375 "/></g></g></g><g fill="#db636f" fill-opacity="1"><g transform="translate(410.98649, 550.376446)"><g><path d="M 2.75 0 L 1.296875 0 L 1.296875 -11.5 L 2.75 -11.5 Z M 2.75 0 "/></g></g></g><g fill="#db636f" fill-opacity="1"><g transform="translate(418.637733, 550.376446)"><g><path d="M 8.4375 -1.421875 L 8.1875 -1.109375 C 7.457031 -0.265625 6.390625 0.15625 4.984375 0.15625 C 3.742188 0.15625 2.769531 -0.253906 2.0625 -1.078125 C 1.351562 -1.898438 0.992188 -3.066406 0.984375 -4.578125 L 0.984375 -6.828125 C 0.984375 -8.441406 1.300781 -9.648438 1.9375 -10.453125 C 2.582031 -11.253906 3.550781 -11.65625 4.84375 -11.65625 C 5.9375 -11.65625 6.789062 -11.347656 7.40625 -10.734375 C 8.03125 -10.128906 8.375 -9.257812 8.4375 -8.125 L 6.984375 -8.125 C 6.929688 -8.84375 6.734375 -9.398438 6.390625 -9.796875 C 6.054688 -10.203125 5.539062 -10.40625 4.84375 -10.40625 C 4.019531 -10.40625 3.414062 -10.132812 3.03125 -9.59375 C 2.644531 -9.050781 2.445312 -8.191406 2.4375 -7.015625 L 2.4375 -4.671875 C 2.4375 -3.503906 2.65625 -2.613281 3.09375 -2 C 3.539062 -1.382812 4.175781 -1.078125 5 -1.078125 C 5.78125 -1.078125 6.375 -1.265625 6.78125 -1.640625 L 6.984375 -1.84375 L 6.984375 -4.5 L 4.890625 -4.5 L 4.890625 -5.71875 L 8.4375 -5.71875 Z M 8.4375 -1.421875 "/></g></g></g><g fill="#db636f" fill-opacity="1"><g transform="translate(431.802087, 550.376446)"><g><path d="M 8.765625 0 L 7.3125 0 L 7.3125 -5.3125 L 2.6875 -5.3125 L 2.6875 0 L 1.234375 0 L 1.234375 -11.5 L 2.6875 -11.5 L 2.6875 -6.546875 L 7.3125 -6.546875 L 7.3125 -11.5 L 8.765625 -11.5 Z M 8.765625 0 "/></g></g></g><g fill="#db636f" fill-opacity="1"><g transform="translate(445.440346, 550.376446)"><g><path d="M 7.953125 -10.25 L 4.9375 -10.25 L 4.9375 0 L 3.484375 0 L 3.484375 -10.25 L 0.46875 -10.25 L 0.46875 -11.5 L 7.953125 -11.5 Z M 7.953125 -10.25 "/></g></g></g><g fill="#db636f" fill-opacity="1"><g transform="translate(457.467324, 550.376446)"><g><path d="M 6.75 -5.3125 L 2.6875 -5.3125 L 2.6875 -1.234375 L 7.421875 -1.234375 L 7.421875 0 L 1.234375 0 L 1.234375 -11.5 L 7.34375 -11.5 L 7.34375 -10.25 L 2.6875 -10.25 L 2.6875 -6.546875 L 6.75 -6.546875 Z M 6.75 -5.3125 "/></g></g></g><g fill="#db636f" fill-opacity="1"><g transform="translate(469.107279, 550.376446)"><g><path d="M 4.71875 -4.65625 L 2.6875 -4.65625 L 2.6875 0 L 1.234375 0 L 1.234375 -11.5 L 4.46875 -11.5 C 5.59375 -11.5 6.441406 -11.203125 7.015625 -10.609375 C 7.597656 -10.023438 7.890625 -9.164062 7.890625 -8.03125 C 7.890625 -7.320312 7.734375 -6.703125 7.421875 -6.171875 C 7.109375 -5.648438 6.664062 -5.253906 6.09375 -4.984375 L 8.3125 -0.09375 L 8.3125 0 L 6.765625 0 Z M 2.6875 -5.890625 L 4.453125 -5.890625 C 5.054688 -5.890625 5.535156 -6.082031 5.890625 -6.46875 C 6.253906 -6.863281 6.4375 -7.382812 6.4375 -8.03125 C 6.4375 -9.507812 5.769531 -10.25 4.4375 -10.25 L 2.6875 -10.25 Z M 2.6875 -5.890625 "/></g></g></g><g fill="#db636f" fill-opacity="1"><g transform="translate(481.300124, 550.376446)"><g/></g></g><g fill="#db636f" fill-opacity="1"><g transform="translate(488.611734, 550.376446)"><g><path d="M 1.234375 0 L 1.234375 -11.5 L 3.984375 -11.5 C 5.328125 -11.5 6.367188 -11.078125 7.109375 -10.234375 C 7.847656 -9.398438 8.21875 -8.222656 8.21875 -6.703125 L 8.21875 -4.765625 C 8.21875 -3.242188 7.84375 -2.066406 7.09375 -1.234375 C 6.34375 -0.410156 5.25 0 3.8125 0 Z M 2.6875 -10.25 L 2.6875 -1.234375 L 3.84375 -1.234375 C 4.863281 -1.234375 5.609375 -1.523438 6.078125 -2.109375 C 6.546875 -2.691406 6.785156 -3.554688 6.796875 -4.703125 L 6.796875 -6.734375 C 6.796875 -7.941406 6.5625 -8.828125 6.09375 -9.390625 C 5.625 -9.960938 4.921875 -10.25 3.984375 -10.25 Z M 2.6875 -10.25 "/></g></g></g><g fill="#db636f" fill-opacity="1"><g transform="translate(501.452252, 550.376446)"><g><path d="M 6.59375 -3 L 2.71875 -3 L 1.828125 0 L 0.34375 0 L 4.046875 -11.5 L 5.28125 -11.5 L 9 0 L 7.515625 0 Z M 3.09375 -4.25 L 6.234375 -4.25 L 4.65625 -9.46875 Z M 3.09375 -4.25 "/></g></g></g><g fill="#db636f" fill-opacity="1"><g transform="translate(514.379652, 550.376446)"><g><path d="M 4.234375 -5.71875 L 6.578125 -11.5 L 8.21875 -11.5 L 4.953125 -4.28125 L 4.953125 0 L 3.5 0 L 3.5 -4.28125 L 0.234375 -11.5 L 1.875 -11.5 Z M 4.234375 -5.71875 "/></g></g></g><g fill="#db636f" fill-opacity="1"><g transform="translate(526.469818, 550.376446)"><g><path d="M 6.265625 -2.90625 C 6.265625 -3.476562 6.109375 -3.914062 5.796875 -4.21875 C 5.484375 -4.53125 4.921875 -4.828125 4.109375 -5.109375 C 3.296875 -5.398438 2.675781 -5.703125 2.25 -6.015625 C 1.820312 -6.335938 1.5 -6.703125 1.28125 -7.109375 C 1.070312 -7.523438 0.96875 -7.992188 0.96875 -8.515625 C 0.96875 -9.429688 1.269531 -10.179688 1.875 -10.765625 C 2.488281 -11.359375 3.285156 -11.65625 4.265625 -11.65625 C 4.941406 -11.65625 5.539062 -11.503906 6.0625 -11.203125 C 6.59375 -10.898438 7 -10.476562 7.28125 -9.9375 C 7.570312 -9.40625 7.71875 -8.816406 7.71875 -8.171875 L 6.265625 -8.171875 C 6.265625 -8.878906 6.09375 -9.425781 5.75 -9.8125 C 5.40625 -10.207031 4.910156 -10.40625 4.265625 -10.40625 C 3.679688 -10.40625 3.226562 -10.238281 2.90625 -9.90625 C 2.59375 -9.582031 2.4375 -9.128906 2.4375 -8.546875 C 2.4375 -8.054688 2.609375 -7.648438 2.953125 -7.328125 C 3.296875 -7.003906 3.832031 -6.710938 4.5625 -6.453125 C 5.695312 -6.078125 6.503906 -5.613281 6.984375 -5.0625 C 7.472656 -4.519531 7.71875 -3.804688 7.71875 -2.921875 C 7.71875 -1.992188 7.414062 -1.25 6.8125 -0.6875 C 6.207031 -0.125 5.382812 0.15625 4.34375 0.15625 C 3.675781 0.15625 3.054688 0.0078125 2.484375 -0.28125 C 1.921875 -0.570312 1.476562 -0.984375 1.15625 -1.515625 C 0.832031 -2.046875 0.671875 -2.648438 0.671875 -3.328125 L 2.125 -3.328125 C 2.125 -2.617188 2.320312 -2.066406 2.71875 -1.671875 C 3.113281 -1.273438 3.65625 -1.078125 4.34375 -1.078125 C 4.976562 -1.078125 5.457031 -1.238281 5.78125 -1.5625 C 6.101562 -1.894531 6.265625 -2.34375 6.265625 -2.90625 Z M 6.265625 -2.90625 "/></g></g></g></svg>