<svg xmlns="http://www.w3.org/2000/svg" xmlns:xlink="http://www.w3.org/1999/xlink" width="500" zoomAndPan="magnify" viewBox="0 0 375 374.999991" height="500" preserveAspectRatio="xMidYMid meet" version="1.0"><defs><clipPath id="05920e60e1"><path d="M 186 287 L 189 287 L 189 321.375 L 186 321.375 Z M 186 287 " clip-rule="nonzero"/></clipPath><clipPath id="e78ac5b6c7"><path d="M 53.625 186 L 88 186 L 88 189 L 53.625 189 Z M 53.625 186 " clip-rule="nonzero"/></clipPath><clipPath id="bc32df65b9"><path d="M 186 53.625 L 189 53.625 L 189 88 L 186 88 Z M 186 53.625 " clip-rule="nonzero"/></clipPath><clipPath id="f638bff256"><path d="M 287 186 L 321.375 186 L 321.375 189 L 287 189 Z M 287 186 " clip-rule="nonzero"/></clipPath></defs><path fill="#ffdcb4" d="M 275.183594 205.847656 C 275.121094 205.847656 275.058594 205.847656 274.964844 205.816406 L 237.476562 198.457031 C 236.914062 198.332031 236.539062 197.800781 236.632812 197.207031 C 236.757812 196.640625 237.320312 196.265625 237.886719 196.359375 L 275.371094 203.71875 C 275.933594 203.84375 276.308594 204.378906 276.214844 204.972656 C 276.121094 205.472656 275.683594 205.847656 275.183594 205.847656 Z M 275.183594 205.847656 " fill-opacity="1" fill-rule="nonzero"/><path fill="#ffdcb4" d="M 317.742188 214.210938 C 317.679688 214.210938 317.613281 214.210938 317.519531 214.179688 L 286.175781 208.011719 C 285.609375 207.882812 285.234375 207.351562 285.328125 206.757812 C 285.453125 206.195312 286.015625 205.816406 286.582031 205.910156 L 317.929688 212.082031 C 318.492188 212.207031 318.867188 212.738281 318.773438 213.332031 C 318.679688 213.867188 318.242188 214.210938 317.742188 214.210938 Z M 317.742188 214.210938 " fill-opacity="1" fill-rule="nonzero"/><path fill="#ffdcb4" d="M 270.109375 222.664062 C 269.984375 222.664062 269.828125 222.632812 269.703125 222.570312 L 231.183594 206.664062 C 230.652344 206.445312 230.371094 205.816406 230.621094 205.285156 C 230.839844 204.753906 231.464844 204.472656 231.996094 204.722656 L 270.546875 220.628906 C 271.078125 220.847656 271.363281 221.476562 271.109375 222.007812 C 270.921875 222.414062 270.546875 222.664062 270.109375 222.664062 Z M 270.109375 222.664062 " fill-opacity="1" fill-rule="nonzero"/><path fill="#ffdcb4" d="M 310.226562 239.199219 C 310.097656 239.199219 309.941406 239.167969 309.816406 239.105469 L 280.285156 226.894531 C 279.753906 226.675781 279.472656 226.046875 279.722656 225.515625 C 279.941406 224.984375 280.570312 224.703125 281.101562 224.953125 L 310.632812 237.164062 C 311.164062 237.382812 311.445312 238.011719 311.195312 238.542969 C 311.007812 238.980469 310.632812 239.199219 310.226562 239.199219 Z M 310.226562 239.199219 " fill-opacity="1" fill-rule="nonzero"/><path fill="#ffdcb4" d="M 261.875 238.136719 C 261.683594 238.136719 261.464844 238.074219 261.277344 237.949219 L 224.765625 213.554688 C 224.261719 213.238281 224.136719 212.582031 224.480469 212.082031 C 224.796875 211.578125 225.453125 211.453125 225.953125 211.800781 L 262.46875 236.195312 C 262.96875 236.507812 263.09375 237.164062 262.75 237.664062 C 262.53125 237.980469 262.21875 238.136719 261.875 238.136719 Z M 261.875 238.136719 " fill-opacity="1" fill-rule="nonzero"/><path fill="#ffdcb4" d="M 297.949219 262.21875 C 297.761719 262.21875 297.542969 262.15625 297.355469 262.03125 L 270.765625 244.273438 C 270.265625 243.960938 270.140625 243.304688 270.484375 242.800781 C 270.796875 242.332031 271.457031 242.175781 271.957031 242.519531 L 298.542969 260.277344 C 299.042969 260.589844 299.171875 261.246094 298.824219 261.746094 C 298.605469 262.0625 298.261719 262.21875 297.949219 262.21875 Z M 297.949219 262.21875 " fill-opacity="1" fill-rule="nonzero"/><path fill="#ffdcb4" d="M 250.789062 251.695312 C 250.503906 251.695312 250.253906 251.601562 250.035156 251.382812 L 218.5 219.910156 C 218.09375 219.503906 218.09375 218.8125 218.5 218.40625 C 218.90625 218 219.597656 218 220.003906 218.40625 L 251.539062 249.878906 C 251.945312 250.285156 251.945312 250.976562 251.539062 251.382812 C 251.320312 251.570312 251.039062 251.695312 250.789062 251.695312 Z M 250.789062 251.695312 " fill-opacity="1" fill-rule="nonzero"/><path fill="#ffdcb4" d="M 281.476562 282.324219 C 281.195312 282.324219 280.945312 282.226562 280.726562 282.007812 L 258.113281 259.429688 C 257.707031 259.023438 257.707031 258.335938 258.113281 257.925781 C 258.523438 257.519531 259.210938 257.519531 259.617188 257.925781 L 282.226562 280.507812 C 282.636719 280.914062 282.636719 281.601562 282.226562 282.007812 C 282.007812 282.226562 281.757812 282.324219 281.476562 282.324219 Z M 281.476562 282.324219 " fill-opacity="1" fill-rule="nonzero"/><path fill="#ffdcb4" d="M 237.257812 262.8125 C 236.914062 262.8125 236.570312 262.65625 236.382812 262.34375 L 211.707031 225.578125 C 211.390625 225.078125 211.515625 224.417969 211.988281 224.105469 C 212.488281 223.792969 213.144531 223.917969 213.457031 224.386719 L 238.136719 261.152344 C 238.449219 261.652344 238.324219 262.3125 237.855469 262.625 C 237.664062 262.75 237.476562 262.8125 237.257812 262.8125 Z M 237.257812 262.8125 " fill-opacity="1" fill-rule="nonzero"/><path fill="#ffdcb4" d="M 261.433594 298.824219 C 261.089844 298.824219 260.746094 298.667969 260.558594 298.355469 L 242.738281 271.832031 C 242.425781 271.332031 242.550781 270.671875 243.019531 270.359375 C 243.523438 270.046875 244.179688 270.171875 244.492188 270.640625 L 262.3125 297.164062 C 262.625 297.667969 262.5 298.324219 262.03125 298.636719 C 261.839844 298.761719 261.652344 298.824219 261.433594 298.824219 Z M 261.433594 298.824219 " fill-opacity="1" fill-rule="nonzero"/><path fill="#ffdcb4" d="M 221.820312 271.109375 C 221.414062 271.109375 221.007812 270.859375 220.847656 270.453125 L 204.472656 231.058594 C 204.253906 230.527344 204.503906 229.898438 205.035156 229.679688 C 205.566406 229.460938 206.195312 229.710938 206.414062 230.242188 L 222.789062 269.640625 C 223.011719 270.171875 222.757812 270.796875 222.226562 271.015625 C 222.101562 271.109375 221.945312 271.109375 221.820312 271.109375 Z M 221.820312 271.109375 " fill-opacity="1" fill-rule="nonzero"/><path fill="#ffdcb4" d="M 238.480469 311.164062 C 238.074219 311.164062 237.664062 310.914062 237.507812 310.507812 L 225.234375 281.007812 C 225.015625 280.476562 225.265625 279.847656 225.796875 279.628906 C 226.328125 279.410156 226.957031 279.660156 227.175781 280.191406 L 239.449219 309.691406 C 239.671875 310.226562 239.417969 310.851562 238.886719 311.070312 C 238.761719 311.132812 238.605469 311.164062 238.480469 311.164062 Z M 238.480469 311.164062 " fill-opacity="1" fill-rule="nonzero"/><path fill="#ffdcb4" d="M 205.003906 276.246094 C 204.503906 276.246094 204.0625 275.902344 203.96875 275.402344 L 196.265625 236.726562 C 196.140625 236.164062 196.515625 235.597656 197.113281 235.472656 C 197.675781 235.347656 198.238281 235.722656 198.363281 236.320312 L 206.066406 274.996094 C 206.195312 275.558594 205.816406 276.121094 205.222656 276.246094 C 205.128906 276.246094 205.066406 276.246094 205.003906 276.246094 Z M 205.003906 276.246094 " fill-opacity="1" fill-rule="nonzero"/><path fill="#ffdcb4" d="M 213.457031 318.773438 C 212.957031 318.773438 212.519531 318.429688 212.425781 317.929688 L 206.195312 286.582031 C 206.066406 286.015625 206.445312 285.453125 207.039062 285.328125 C 207.601562 285.203125 208.167969 285.578125 208.292969 286.175781 L 214.523438 317.519531 C 214.648438 318.085938 214.273438 318.648438 213.679688 318.773438 C 213.617188 318.773438 213.554688 318.773438 213.457031 318.773438 Z M 213.457031 318.773438 " fill-opacity="1" fill-rule="nonzero"/><path fill="#ffdcb4" d="M 187.5625 277.9375 C 186.964844 277.9375 186.496094 277.46875 186.496094 276.875 L 186.464844 243.050781 C 186.464844 242.457031 186.933594 241.988281 187.53125 241.988281 C 188.125 241.988281 188.59375 242.457031 188.59375 243.050781 L 188.625 276.875 C 188.625 277.46875 188.15625 277.9375 187.5625 277.9375 Z M 187.5625 277.9375 " fill-opacity="1" fill-rule="nonzero"/><g clip-path="url(#05920e60e1)"><path fill="#ffdcb4" d="M 187.625 321.308594 C 187.027344 321.308594 186.558594 320.839844 186.558594 320.246094 L 186.527344 288.304688 C 186.527344 287.707031 186.996094 287.238281 187.59375 287.238281 C 188.1875 287.238281 188.65625 287.707031 188.65625 288.304688 L 188.6875 320.246094 C 188.6875 320.839844 188.21875 321.308594 187.625 321.308594 Z M 187.625 321.308594 " fill-opacity="1" fill-rule="nonzero"/></g><path fill="#ffdcb4" d="M 170.148438 276.246094 C 170.085938 276.246094 170.023438 276.246094 169.929688 276.214844 C 169.367188 276.089844 168.992188 275.558594 169.085938 274.964844 L 176.570312 236.851562 C 176.695312 236.289062 177.257812 235.914062 177.820312 236.007812 C 178.386719 236.132812 178.761719 236.664062 178.667969 237.257812 L 171.183594 275.371094 C 171.121094 275.902344 170.648438 276.246094 170.148438 276.246094 Z M 170.148438 276.246094 " fill-opacity="1" fill-rule="nonzero"/><path fill="#ffdcb4" d="M 161.789062 318.804688 C 161.726562 318.804688 161.664062 318.804688 161.570312 318.773438 C 161.003906 318.648438 160.628906 318.117188 160.722656 317.519531 L 166.890625 286.175781 C 167.015625 285.609375 167.582031 285.234375 168.144531 285.328125 C 168.707031 285.453125 169.085938 285.984375 168.992188 286.582031 L 162.820312 317.929688 C 162.726562 318.460938 162.289062 318.804688 161.789062 318.804688 Z M 161.789062 318.804688 " fill-opacity="1" fill-rule="nonzero"/><path fill="#ffdcb4" d="M 153.332031 271.175781 C 153.207031 271.175781 153.050781 271.140625 152.925781 271.078125 C 152.394531 270.859375 152.109375 270.234375 152.363281 269.703125 L 168.644531 230.277344 C 168.863281 229.742188 169.492188 229.460938 170.023438 229.710938 C 170.554688 229.929688 170.839844 230.558594 170.585938 231.089844 L 154.304688 270.515625 C 154.148438 270.921875 153.769531 271.175781 153.332031 271.175781 Z M 153.332031 271.175781 " fill-opacity="1" fill-rule="nonzero"/><path fill="#ffdcb4" d="M 136.796875 311.257812 C 136.671875 311.257812 136.515625 311.226562 136.390625 311.164062 C 135.859375 310.945312 135.578125 310.320312 135.828125 309.785156 L 148.039062 280.253906 C 148.257812 279.722656 148.886719 279.441406 149.417969 279.691406 C 149.949219 279.910156 150.230469 280.539062 149.980469 281.070312 L 137.769531 310.601562 C 137.613281 311.007812 137.203125 311.257812 136.796875 311.257812 Z M 136.796875 311.257812 " fill-opacity="1" fill-rule="nonzero"/><path fill="#ffdcb4" d="M 137.863281 262.9375 C 137.675781 262.9375 137.457031 262.875 137.265625 262.75 C 136.765625 262.4375 136.640625 261.777344 136.984375 261.277344 L 161.757812 224.199219 C 162.070312 223.730469 162.726562 223.574219 163.226562 223.917969 C 163.730469 224.230469 163.855469 224.890625 163.511719 225.390625 L 138.738281 262.46875 C 138.550781 262.75 138.207031 262.9375 137.863281 262.9375 Z M 137.863281 262.9375 " fill-opacity="1" fill-rule="nonzero"/><path fill="#ffdcb4" d="M 113.78125 298.980469 C 113.59375 298.980469 113.375 298.917969 113.1875 298.792969 C 112.683594 298.480469 112.558594 297.824219 112.902344 297.324219 L 130.660156 270.734375 C 130.972656 270.234375 131.628906 270.109375 132.132812 270.453125 C 132.632812 270.765625 132.757812 271.425781 132.414062 271.925781 L 114.65625 298.511719 C 114.46875 298.824219 114.125 298.980469 113.78125 298.980469 Z M 113.78125 298.980469 " fill-opacity="1" fill-rule="nonzero"/><path fill="#ffdcb4" d="M 124.304688 251.820312 C 124.019531 251.820312 123.769531 251.726562 123.550781 251.507812 C 123.144531 251.101562 123.144531 250.410156 123.550781 250.003906 L 155.085938 218.4375 C 155.492188 218.03125 156.183594 218.03125 156.589844 218.4375 C 156.996094 218.84375 156.996094 219.535156 156.589844 219.941406 L 125.054688 251.539062 C 124.867188 251.726562 124.585938 251.820312 124.304688 251.820312 Z M 124.304688 251.820312 " fill-opacity="1" fill-rule="nonzero"/><path fill="#ffdcb4" d="M 93.675781 282.542969 C 93.394531 282.542969 93.144531 282.449219 92.925781 282.226562 C 92.515625 281.820312 92.515625 281.132812 92.925781 280.726562 L 115.503906 258.113281 C 115.910156 257.707031 116.597656 257.707031 117.007812 258.113281 C 117.414062 258.523438 117.414062 259.210938 117.007812 259.617188 L 94.425781 282.226562 C 94.238281 282.449219 93.957031 282.542969 93.675781 282.542969 Z M 93.675781 282.542969 " fill-opacity="1" fill-rule="nonzero"/><path fill="#ffdcb4" d="M 113.1875 238.324219 C 112.839844 238.324219 112.496094 238.167969 112.308594 237.855469 C 111.996094 237.351562 112.121094 236.695312 112.589844 236.382812 L 148.886719 212.019531 C 149.386719 211.707031 150.042969 211.832031 150.359375 212.300781 C 150.671875 212.800781 150.546875 213.457031 150.074219 213.773438 L 113.78125 238.136719 C 113.59375 238.261719 113.40625 238.324219 113.1875 238.324219 Z M 113.1875 238.324219 " fill-opacity="1" fill-rule="nonzero"/><path fill="#ffdcb4" d="M 77.171875 262.5 C 76.828125 262.5 76.484375 262.34375 76.296875 262.03125 C 75.984375 261.527344 76.109375 260.871094 76.578125 260.558594 L 103.101562 242.738281 C 103.570312 242.394531 104.261719 242.550781 104.574219 243.019531 C 104.886719 243.523438 104.761719 244.179688 104.292969 244.492188 L 77.765625 262.3125 C 77.578125 262.4375 77.390625 262.5 77.171875 262.5 Z M 77.171875 262.5 " fill-opacity="1" fill-rule="nonzero"/><path fill="#ffdcb4" d="M 104.886719 222.886719 C 104.480469 222.886719 104.074219 222.632812 103.917969 222.226562 C 103.695312 221.695312 103.949219 221.070312 104.480469 220.847656 L 143.25 204.722656 C 143.78125 204.503906 144.40625 204.753906 144.625 205.285156 C 144.847656 205.816406 144.59375 206.445312 144.0625 206.664062 L 105.292969 222.789062 C 105.167969 222.855469 105.011719 222.886719 104.886719 222.886719 Z M 104.886719 222.886719 " fill-opacity="1" fill-rule="nonzero"/><path fill="#ffdcb4" d="M 64.835938 239.542969 C 64.425781 239.542969 64.019531 239.292969 63.863281 238.886719 C 63.644531 238.355469 63.894531 237.730469 64.425781 237.507812 L 93.925781 225.234375 C 94.457031 225.015625 95.085938 225.265625 95.304688 225.796875 C 95.523438 226.328125 95.273438 226.957031 94.742188 227.175781 L 65.242188 239.449219 C 65.117188 239.511719 64.992188 239.542969 64.835938 239.542969 Z M 64.835938 239.542969 " fill-opacity="1" fill-rule="nonzero"/><path fill="#ffdcb4" d="M 99.75 206.066406 C 99.25 206.066406 98.8125 205.722656 98.71875 205.222656 C 98.59375 204.660156 98.96875 204.09375 99.5625 203.96875 L 137.675781 196.390625 C 138.269531 196.265625 138.800781 196.640625 138.925781 197.238281 C 139.050781 197.832031 138.675781 198.363281 138.082031 198.488281 L 99.96875 206.035156 C 99.90625 206.066406 99.84375 206.066406 99.75 206.066406 Z M 99.75 206.066406 " fill-opacity="1" fill-rule="nonzero"/><path fill="#ffdcb4" d="M 57.222656 214.523438 C 56.722656 214.523438 56.285156 214.179688 56.191406 213.679688 C 56.066406 213.113281 56.441406 212.550781 57.035156 212.425781 L 88.382812 206.195312 C 88.949219 206.066406 89.511719 206.445312 89.636719 207.039062 C 89.761719 207.601562 89.386719 208.167969 88.789062 208.292969 L 57.445312 214.523438 C 57.382812 214.523438 57.285156 214.523438 57.222656 214.523438 Z M 57.222656 214.523438 " fill-opacity="1" fill-rule="nonzero"/><path fill="#ffdcb4" d="M 98.058594 188.625 C 97.464844 188.625 96.996094 188.15625 96.996094 187.5625 C 96.996094 186.964844 97.464844 186.496094 98.058594 186.496094 L 132.476562 186.464844 C 133.070312 186.464844 133.539062 186.933594 133.539062 187.53125 C 133.539062 188.125 133.070312 188.59375 132.476562 188.59375 Z M 98.058594 188.625 " fill-opacity="1" fill-rule="nonzero"/><g clip-path="url(#e78ac5b6c7)"><path fill="#ffdcb4" d="M 54.6875 188.6875 C 54.09375 188.6875 53.625 188.21875 53.625 187.625 C 53.625 187.027344 54.09375 186.558594 54.6875 186.558594 L 86.628906 186.527344 C 87.226562 186.527344 87.695312 186.996094 87.695312 187.59375 C 87.695312 188.1875 87.226562 188.65625 86.628906 188.65625 Z M 54.6875 188.6875 " fill-opacity="1" fill-rule="nonzero"/></g><path fill="#ffdcb4" d="M 129.34375 177.039062 C 129.28125 177.039062 129.21875 177.039062 129.125 177.007812 L 99.53125 171.183594 C 98.96875 171.058594 98.59375 170.523438 98.6875 169.929688 C 98.8125 169.367188 99.34375 168.992188 99.9375 169.085938 L 129.53125 174.910156 C 130.097656 175.035156 130.472656 175.566406 130.378906 176.160156 C 130.285156 176.695312 129.847656 177.039062 129.34375 177.039062 Z M 129.34375 177.039062 " fill-opacity="1" fill-rule="nonzero"/><path fill="#ffdcb4" d="M 88.539062 169.023438 C 88.476562 169.023438 88.414062 169.023438 88.320312 168.992188 L 56.972656 162.851562 C 56.410156 162.726562 56.035156 162.195312 56.128906 161.601562 C 56.253906 161.035156 56.816406 160.660156 57.382812 160.753906 L 88.726562 166.921875 C 89.292969 167.050781 89.667969 167.582031 89.574219 168.175781 C 89.480469 168.675781 89.042969 169.023438 88.539062 169.023438 Z M 88.539062 169.023438 " fill-opacity="1" fill-rule="nonzero"/><path fill="#ffdcb4" d="M 130.628906 165.074219 C 130.503906 165.074219 130.347656 165.042969 130.222656 164.980469 L 104.386719 154.304688 C 103.855469 154.085938 103.570312 153.457031 103.824219 152.925781 C 104.042969 152.394531 104.667969 152.109375 105.199219 152.363281 L 131.035156 163.039062 C 131.566406 163.257812 131.851562 163.886719 131.597656 164.417969 C 131.441406 164.824219 131.066406 165.074219 130.628906 165.074219 Z M 130.628906 165.074219 " fill-opacity="1" fill-rule="nonzero"/><path fill="#ffdcb4" d="M 94.269531 150.042969 C 94.144531 150.042969 93.988281 150.011719 93.863281 149.949219 L 64.332031 137.738281 C 63.800781 137.519531 63.519531 136.890625 63.769531 136.359375 C 63.988281 135.828125 64.613281 135.546875 65.148438 135.796875 L 94.679688 148.007812 C 95.210938 148.226562 95.492188 148.855469 95.242188 149.386719 C 95.085938 149.792969 94.679688 150.042969 94.269531 150.042969 Z M 94.269531 150.042969 " fill-opacity="1" fill-rule="nonzero"/><path fill="#ffdcb4" d="M 135.921875 154.179688 C 135.734375 154.179688 135.515625 154.117188 135.324219 153.988281 L 112.464844 138.738281 C 111.964844 138.425781 111.839844 137.769531 112.183594 137.265625 C 112.496094 136.796875 113.15625 136.640625 113.65625 136.984375 L 136.515625 152.238281 C 137.015625 152.550781 137.140625 153.207031 136.796875 153.707031 C 136.609375 154.023438 136.265625 154.179688 135.921875 154.179688 Z M 135.921875 154.179688 " fill-opacity="1" fill-rule="nonzero"/><path fill="#ffdcb4" d="M 103.570312 132.570312 C 103.382812 132.570312 103.164062 132.507812 102.976562 132.382812 L 76.390625 114.625 C 75.886719 114.3125 75.761719 113.65625 76.109375 113.15625 C 76.421875 112.683594 77.078125 112.527344 77.578125 112.871094 L 104.167969 130.628906 C 104.667969 130.941406 104.792969 131.597656 104.449219 132.101562 C 104.261719 132.414062 103.917969 132.570312 103.570312 132.570312 Z M 103.570312 132.570312 " fill-opacity="1" fill-rule="nonzero"/><path fill="#ffdcb4" d="M 145.472656 146.632812 C 145.191406 146.632812 144.941406 146.535156 144.722656 146.316406 L 123.425781 125.054688 C 123.019531 124.648438 123.019531 123.957031 123.425781 123.550781 C 123.832031 123.144531 124.523438 123.144531 124.929688 123.550781 L 146.222656 144.816406 C 146.632812 145.222656 146.632812 145.910156 146.222656 146.316406 C 146.003906 146.535156 145.722656 146.632812 145.472656 146.632812 Z M 145.472656 146.632812 " fill-opacity="1" fill-rule="nonzero"/><path fill="#ffdcb4" d="M 116.097656 117.320312 C 115.816406 117.320312 115.566406 117.226562 115.347656 117.007812 L 92.738281 94.425781 C 92.328125 94.019531 92.328125 93.332031 92.738281 92.925781 C 93.144531 92.515625 93.832031 92.515625 94.238281 92.925781 L 116.851562 115.503906 C 117.257812 115.910156 117.257812 116.597656 116.851562 117.007812 C 116.628906 117.226562 116.347656 117.320312 116.097656 117.320312 Z M 116.097656 117.320312 " fill-opacity="1" fill-rule="nonzero"/><path fill="#ffdcb4" d="M 157.621094 143.9375 C 157.277344 143.9375 156.933594 143.78125 156.746094 143.46875 L 136.796875 113.78125 C 136.484375 113.28125 136.609375 112.621094 137.078125 112.308594 C 137.582031 111.996094 138.238281 112.121094 138.550781 112.589844 L 158.5 142.277344 C 158.8125 142.777344 158.6875 143.4375 158.21875 143.75 C 158.03125 143.875 157.8125 143.9375 157.621094 143.9375 Z M 157.621094 143.9375 " fill-opacity="1" fill-rule="nonzero"/><path fill="#ffdcb4" d="M 131.316406 104.761719 C 130.972656 104.761719 130.628906 104.605469 130.441406 104.292969 L 112.621094 77.765625 C 112.308594 77.265625 112.433594 76.609375 112.902344 76.296875 C 113.40625 75.984375 114.0625 76.109375 114.375 76.578125 L 132.195312 103.101562 C 132.507812 103.601562 132.382812 104.261719 131.914062 104.574219 C 131.726562 104.699219 131.503906 104.761719 131.316406 104.761719 Z M 131.316406 104.761719 " fill-opacity="1" fill-rule="nonzero"/><path fill="#ffdcb4" d="M 169.679688 145.691406 C 169.273438 145.691406 168.863281 145.441406 168.707031 145.035156 L 152.140625 105.292969 C 151.921875 104.761719 152.175781 104.136719 152.707031 103.917969 C 153.238281 103.695312 153.863281 103.949219 154.085938 104.480469 L 170.617188 144.21875 C 170.839844 144.753906 170.585938 145.378906 170.054688 145.597656 C 169.929688 145.660156 169.804688 145.691406 169.679688 145.691406 Z M 169.679688 145.691406 " fill-opacity="1" fill-rule="nonzero"/><path fill="#ffdcb4" d="M 148.730469 95.398438 C 148.320312 95.398438 147.914062 95.148438 147.757812 94.742188 L 135.484375 65.242188 C 135.261719 64.707031 135.515625 64.082031 136.046875 63.863281 C 136.578125 63.644531 137.203125 63.894531 137.425781 64.425781 L 149.699219 93.925781 C 149.917969 94.457031 149.667969 95.085938 149.136719 95.304688 C 149.011719 95.367188 148.886719 95.398438 148.730469 95.398438 Z M 148.730469 95.398438 " fill-opacity="1" fill-rule="nonzero"/><path fill="#ffdcb4" d="M 180.328125 153.019531 C 179.824219 153.019531 179.386719 152.675781 179.292969 152.175781 L 168.898438 99.96875 C 168.769531 99.40625 169.148438 98.84375 169.742188 98.71875 C 170.304688 98.59375 170.871094 98.96875 170.996094 99.5625 L 181.390625 151.765625 C 181.515625 152.332031 181.140625 152.894531 180.546875 153.019531 C 180.484375 153.019531 180.421875 153.019531 180.328125 153.019531 Z M 180.328125 153.019531 " fill-opacity="1" fill-rule="nonzero"/><path fill="#ffdcb4" d="M 167.707031 89.636719 C 167.207031 89.636719 166.765625 89.292969 166.671875 88.789062 L 160.441406 57.445312 C 160.316406 56.878906 160.691406 56.316406 161.285156 56.191406 C 161.851562 56.066406 162.414062 56.441406 162.539062 57.035156 L 168.769531 88.382812 C 168.898438 88.949219 168.519531 89.511719 167.925781 89.636719 C 167.863281 89.636719 167.769531 89.636719 167.707031 89.636719 Z M 167.707031 89.636719 " fill-opacity="1" fill-rule="nonzero"/><path fill="#ffdcb4" d="M 187.433594 163.699219 C 186.839844 163.699219 186.371094 163.226562 186.371094 162.632812 L 186.308594 98.058594 C 186.308594 97.464844 186.777344 96.996094 187.371094 96.996094 C 187.96875 96.996094 188.4375 97.464844 188.4375 98.058594 L 188.5 162.632812 C 188.5 163.195312 188.03125 163.699219 187.433594 163.699219 Z M 187.433594 163.699219 " fill-opacity="1" fill-rule="nonzero"/><g clip-path="url(#bc32df65b9)"><path fill="#ffdcb4" d="M 187.339844 87.695312 C 186.746094 87.695312 186.277344 87.226562 186.277344 86.628906 L 186.246094 54.6875 C 186.246094 54.09375 186.714844 53.625 187.308594 53.625 C 187.90625 53.625 188.375 54.09375 188.375 54.6875 L 188.40625 86.628906 C 188.40625 87.226562 187.9375 87.695312 187.339844 87.695312 Z M 187.339844 87.695312 " fill-opacity="1" fill-rule="nonzero"/></g><path fill="#ffdcb4" d="M 194.511719 153.019531 C 194.449219 153.019531 194.386719 153.019531 194.292969 152.988281 C 193.730469 152.863281 193.355469 152.332031 193.449219 151.734375 L 203.71875 99.53125 C 203.84375 98.96875 204.410156 98.59375 204.972656 98.6875 C 205.535156 98.8125 205.910156 99.34375 205.816406 99.9375 L 195.546875 152.140625 C 195.453125 152.644531 195.015625 153.019531 194.511719 153.019531 Z M 194.511719 153.019531 " fill-opacity="1" fill-rule="nonzero"/><path fill="#ffdcb4" d="M 206.976562 89.605469 C 206.914062 89.605469 206.851562 89.605469 206.757812 89.574219 C 206.195312 89.449219 205.816406 88.914062 205.910156 88.320312 L 212.082031 56.972656 C 212.207031 56.410156 212.769531 56.035156 213.332031 56.128906 C 213.898438 56.253906 214.273438 56.785156 214.179688 57.382812 L 208.011719 88.757812 C 207.914062 89.261719 207.476562 89.605469 206.976562 89.605469 Z M 206.976562 89.605469 " fill-opacity="1" fill-rule="nonzero"/><path fill="#ffdcb4" d="M 205.035156 145.941406 C 204.910156 145.941406 204.753906 145.910156 204.628906 145.847656 C 204.09375 145.628906 203.8125 145.003906 204.0625 144.46875 L 220.628906 104.386719 C 220.847656 103.855469 221.476562 103.570312 222.007812 103.824219 C 222.539062 104.042969 222.824219 104.667969 222.570312 105.199219 L 206.003906 145.285156 C 205.847656 145.722656 205.472656 145.941406 205.035156 145.941406 Z M 205.035156 145.941406 " fill-opacity="1" fill-rule="nonzero"/><path fill="#ffdcb4" d="M 225.953125 95.335938 C 225.828125 95.335938 225.671875 95.304688 225.546875 95.242188 C 225.015625 95.023438 224.734375 94.394531 224.984375 93.863281 L 237.195312 64.332031 C 237.414062 63.800781 238.042969 63.519531 238.574219 63.769531 C 239.105469 63.988281 239.386719 64.613281 239.136719 65.148438 L 226.925781 94.679688 C 226.769531 95.085938 226.359375 95.335938 225.953125 95.335938 Z M 225.953125 95.335938 " fill-opacity="1" fill-rule="nonzero"/><path fill="#ffdcb4" d="M 217.4375 143.5625 C 217.25 143.5625 217.027344 143.5 216.839844 143.375 C 216.339844 143.0625 216.214844 142.402344 216.558594 141.902344 L 236.226562 112.464844 C 236.539062 111.964844 237.195312 111.839844 237.699219 112.183594 C 238.199219 112.496094 238.324219 113.15625 237.980469 113.65625 L 218.3125 143.09375 C 218.09375 143.40625 217.78125 143.5625 217.4375 143.5625 Z M 217.4375 143.5625 " fill-opacity="1" fill-rule="nonzero"/><path fill="#ffdcb4" d="M 243.429688 104.636719 C 243.238281 104.636719 243.019531 104.574219 242.832031 104.449219 C 242.332031 104.136719 242.207031 103.476562 242.550781 102.976562 L 260.308594 76.390625 C 260.621094 75.921875 261.277344 75.761719 261.777344 76.109375 C 262.28125 76.421875 262.40625 77.078125 262.0625 77.578125 L 244.304688 104.167969 C 244.085938 104.480469 243.773438 104.636719 243.429688 104.636719 Z M 243.429688 104.636719 " fill-opacity="1" fill-rule="nonzero"/><path fill="#ffdcb4" d="M 229.273438 146.632812 C 228.992188 146.632812 228.742188 146.535156 228.523438 146.316406 C 228.113281 145.910156 228.113281 145.222656 228.523438 144.816406 L 249.878906 123.425781 C 250.285156 123.019531 250.976562 123.019531 251.382812 123.425781 C 251.789062 123.832031 251.789062 124.523438 251.382812 124.929688 L 230.023438 146.316406 C 229.804688 146.535156 229.554688 146.632812 229.273438 146.632812 Z M 229.273438 146.632812 " fill-opacity="1" fill-rule="nonzero"/><path fill="#ffdcb4" d="M 258.679688 117.164062 C 258.398438 117.164062 258.148438 117.070312 257.925781 116.851562 C 257.519531 116.441406 257.519531 115.753906 257.925781 115.347656 L 280.507812 92.738281 C 280.914062 92.328125 281.601562 92.328125 282.007812 92.738281 C 282.417969 93.144531 282.417969 93.832031 282.007812 94.238281 L 259.429688 116.851562 C 259.242188 117.039062 258.960938 117.164062 258.679688 117.164062 Z M 258.679688 117.164062 " fill-opacity="1" fill-rule="nonzero"/><path fill="#ffdcb4" d="M 238.886719 154.085938 C 238.542969 154.085938 238.199219 153.925781 238.011719 153.613281 C 237.699219 153.113281 237.824219 152.457031 238.292969 152.140625 L 261.152344 136.796875 C 261.621094 136.453125 262.3125 136.609375 262.625 137.078125 C 262.9375 137.582031 262.8125 138.238281 262.34375 138.550781 L 239.480469 153.894531 C 239.292969 154.023438 239.105469 154.085938 238.886719 154.085938 Z M 238.886719 154.085938 " fill-opacity="1" fill-rule="nonzero"/><path fill="#ffdcb4" d="M 271.238281 132.382812 C 270.890625 132.382812 270.546875 132.226562 270.359375 131.914062 C 270.046875 131.410156 270.171875 130.753906 270.640625 130.441406 L 297.164062 112.621094 C 297.667969 112.308594 298.324219 112.433594 298.636719 112.902344 C 298.949219 113.40625 298.824219 114.0625 298.355469 114.375 L 271.832031 132.195312 C 271.644531 132.320312 271.425781 132.382812 271.238281 132.382812 Z M 271.238281 132.382812 " fill-opacity="1" fill-rule="nonzero"/><path fill="#ffdcb4" d="M 244.523438 164.824219 C 244.117188 164.824219 243.710938 164.574219 243.554688 164.167969 C 243.335938 163.636719 243.585938 163.007812 244.117188 162.789062 L 269.640625 152.175781 C 270.171875 151.953125 270.796875 152.207031 271.015625 152.738281 C 271.238281 153.269531 270.984375 153.894531 270.453125 154.117188 L 244.929688 164.730469 C 244.804688 164.792969 244.679688 164.824219 244.523438 164.824219 Z M 244.523438 164.824219 " fill-opacity="1" fill-rule="nonzero"/><path fill="#ffdcb4" d="M 280.601562 149.792969 C 280.191406 149.792969 279.785156 149.542969 279.628906 149.136719 C 279.410156 148.605469 279.660156 147.976562 280.191406 147.757812 L 309.691406 135.484375 C 310.226562 135.261719 310.851562 135.515625 311.070312 136.046875 C 311.289062 136.578125 311.039062 137.203125 310.507812 137.425781 L 281.007812 149.699219 C 280.882812 149.761719 280.726562 149.792969 280.601562 149.792969 Z M 280.601562 149.792969 " fill-opacity="1" fill-rule="nonzero"/><path fill="#ffdcb4" d="M 245.371094 176.945312 C 244.867188 176.945312 244.429688 176.601562 244.335938 176.097656 C 244.210938 175.535156 244.585938 174.972656 245.183594 174.847656 L 274.996094 168.898438 C 275.558594 168.769531 276.121094 169.148438 276.246094 169.742188 C 276.371094 170.304688 275.996094 170.871094 275.402344 170.996094 L 245.589844 176.945312 C 245.527344 176.945312 245.433594 176.945312 245.371094 176.945312 Z M 245.371094 176.945312 " fill-opacity="1" fill-rule="nonzero"/><path fill="#ffdcb4" d="M 286.363281 168.769531 C 285.859375 168.769531 285.421875 168.425781 285.328125 167.925781 C 285.203125 167.363281 285.578125 166.796875 286.175781 166.671875 L 317.519531 160.441406 C 318.117188 160.316406 318.648438 160.691406 318.773438 161.285156 C 318.898438 161.882812 318.523438 162.414062 317.929688 162.539062 L 286.582031 168.769531 C 286.519531 168.769531 286.425781 168.769531 286.363281 168.769531 Z M 286.363281 168.769531 " fill-opacity="1" fill-rule="nonzero"/><path fill="#ffdcb4" d="M 242.550781 188.46875 C 241.957031 188.46875 241.488281 188 241.488281 187.402344 C 241.488281 186.808594 241.957031 186.339844 242.550781 186.339844 L 276.875 186.308594 C 277.46875 186.308594 277.9375 186.777344 277.9375 187.371094 C 277.9375 187.96875 277.46875 188.4375 276.875 188.4375 Z M 242.550781 188.46875 " fill-opacity="1" fill-rule="nonzero"/><g clip-path="url(#f638bff256)"><path fill="#ffdcb4" d="M 288.304688 188.40625 C 287.707031 188.40625 287.238281 187.9375 287.238281 187.339844 C 287.238281 186.746094 287.707031 186.277344 288.304688 186.277344 L 320.246094 186.246094 C 320.839844 186.246094 321.308594 186.714844 321.308594 187.308594 C 321.308594 187.90625 320.839844 188.375 320.246094 188.375 Z M 288.304688 188.40625 " fill-opacity="1" fill-rule="nonzero"/></g><path fill="#ffdcb4" d="M 187.464844 244.304688 C 187.214844 244.304688 186.964844 244.242188 186.746094 244.085938 C 186.152344 243.648438 185.179688 243.019531 183.960938 242.207031 C 146.882812 217.84375 128.09375 194.105469 128.09375 171.589844 C 128.09375 154.867188 141.683594 141.277344 158.40625 141.277344 C 172.121094 141.277344 183.773438 150.453125 187.464844 163.007812 C 191.160156 150.453125 202.8125 141.277344 216.527344 141.277344 C 233.25 141.277344 246.839844 154.867188 246.839844 171.589844 C 246.839844 194.199219 228.082031 217.9375 191.066406 242.144531 C 189.785156 242.988281 188.8125 243.617188 188.1875 244.054688 C 187.96875 244.210938 187.71875 244.304688 187.464844 244.304688 Z M 158.40625 143.78125 C 143.0625 143.78125 130.566406 156.277344 130.566406 171.621094 C 130.566406 193.230469 148.980469 216.277344 185.304688 240.171875 C 186.152344 240.734375 186.871094 241.203125 187.464844 241.582031 C 188.0625 241.171875 188.8125 240.703125 189.691406 240.109375 C 225.953125 216.371094 244.367188 193.324219 244.367188 171.621094 C 244.367188 156.277344 231.871094 143.78125 216.527344 143.78125 C 201.183594 143.78125 188.6875 156.277344 188.6875 171.621094 C 188.6875 172.308594 188.125 172.875 187.433594 172.875 C 186.746094 172.875 186.183594 172.308594 186.183594 171.621094 C 186.246094 156.246094 173.75 143.78125 158.40625 143.78125 Z M 158.40625 143.78125 " fill-opacity="1" fill-rule="nonzero"/></svg>