<svg xmlns="http://www.w3.org/2000/svg" xmlns:xlink="http://www.w3.org/1999/xlink" width="500" zoomAndPan="magnify" viewBox="0 0 375 374.999991" height="500" preserveAspectRatio="xMidYMid meet" version="1.0"><defs><clipPath id="50e1590a9e"><path d="M 212 80.328125 L 219 80.328125 L 219 94 L 212 94 Z M 212 80.328125 " clip-rule="nonzero"/></clipPath><clipPath id="dd3535b8e8"><path d="M 157 80.328125 L 164 80.328125 L 164 94 L 157 94 Z M 157 80.328125 " clip-rule="nonzero"/></clipPath><clipPath id="729e11a4c3"><path d="M 67.453125 206 L 90 206 L 90 218 L 67.453125 218 Z M 67.453125 206 " clip-rule="nonzero"/></clipPath><clipPath id="0b2eab93ec"><path d="M 285 206 L 307.453125 206 L 307.453125 218 L 285 218 Z M 285 206 " clip-rule="nonzero"/></clipPath><clipPath id="935df33e0b"><path d="M 67.453125 226 L 90 226 L 90 237.828125 L 67.453125 237.828125 Z M 67.453125 226 " clip-rule="nonzero"/></clipPath><clipPath id="dd27bda77f"><path d="M 87 226 L 110 226 L 110 237.828125 L 87 237.828125 Z M 87 226 " clip-rule="nonzero"/></clipPath><clipPath id="3516a955f9"><path d="M 107 226 L 130 226 L 130 237.828125 L 107 237.828125 Z M 107 226 " clip-rule="nonzero"/></clipPath><clipPath id="d40b3f9003"><path d="M 126 226 L 150 226 L 150 237.828125 L 126 237.828125 Z M 126 226 " clip-rule="nonzero"/></clipPath><clipPath id="aaaccc2da7"><path d="M 146 226 L 169 226 L 169 237.828125 L 146 237.828125 Z M 146 226 " clip-rule="nonzero"/></clipPath><clipPath id="ee8851fe7a"><path d="M 166 226 L 189 226 L 189 237.828125 L 166 237.828125 Z M 166 226 " clip-rule="nonzero"/></clipPath><clipPath id="4940c04b51"><path d="M 186 226 L 209 226 L 209 237.828125 L 186 237.828125 Z M 186 226 " clip-rule="nonzero"/></clipPath><clipPath id="83623f00f5"><path d="M 205 226 L 229 226 L 229 237.828125 L 205 237.828125 Z M 205 226 " clip-rule="nonzero"/></clipPath><clipPath id="210ce4775d"><path d="M 225 226 L 249 226 L 249 237.828125 L 225 237.828125 Z M 225 226 " clip-rule="nonzero"/></clipPath><clipPath id="6da8cebb2b"><path d="M 245 226 L 268 226 L 268 237.828125 L 245 237.828125 Z M 245 226 " clip-rule="nonzero"/></clipPath><clipPath id="ecdc4fdecf"><path d="M 265 226 L 288 226 L 288 237.828125 L 265 237.828125 Z M 265 226 " clip-rule="nonzero"/></clipPath><clipPath id="1482df3d93"><path d="M 285 226 L 307.453125 226 L 307.453125 237.828125 L 285 237.828125 Z M 285 226 " clip-rule="nonzero"/></clipPath></defs><path fill="#dda15e" d="M 206.230469 190.269531 L 203.730469 190.269531 C 203.730469 181.570312 196.652344 174.492188 187.976562 174.492188 C 179.277344 174.492188 172.199219 181.570312 172.199219 190.269531 L 169.699219 190.269531 C 169.699219 180.195312 177.902344 171.992188 187.976562 171.992188 C 198.027344 171.992188 206.230469 180.195312 206.230469 190.269531 Z M 206.230469 190.269531 " fill-opacity="1" fill-rule="nonzero"/><path fill="#dda15e" d="M 123.246094 127.3125 L 125.015625 125.546875 L 153.003906 153.535156 L 151.234375 155.300781 Z M 123.246094 127.3125 " fill-opacity="1" fill-rule="nonzero"/><path fill="#dda15e" d="M 106.851562 110.910156 L 108.621094 109.144531 L 117.796875 118.320312 L 116.03125 120.085938 Z M 106.851562 110.910156 " fill-opacity="1" fill-rule="nonzero"/><path fill="#dda15e" d="M 158.230469 162.300781 L 160 160.53125 L 169.175781 169.707031 L 167.40625 171.476562 Z M 158.230469 162.300781 " fill-opacity="1" fill-rule="nonzero"/><path fill="#dda15e" d="M 100.429688 168.113281 L 101.074219 165.695312 L 139.304688 175.945312 L 138.660156 178.359375 Z M 100.429688 168.113281 " fill-opacity="1" fill-rule="nonzero"/><path fill="#dda15e" d="M 78.042969 162.09375 L 78.691406 159.679688 L 91.226562 163.035156 L 90.578125 165.453125 Z M 78.042969 162.09375 " fill-opacity="1" fill-rule="nonzero"/><path fill="#dda15e" d="M 148.238281 180.90625 L 148.882812 178.492188 L 161.417969 181.847656 L 160.773438 184.265625 Z M 148.238281 180.90625 " fill-opacity="1" fill-rule="nonzero"/><path fill="#dda15e" d="M 236.613281 175.921875 L 274.847656 165.6875 L 275.496094 168.105469 L 237.257812 178.339844 Z M 236.613281 175.921875 " fill-opacity="1" fill-rule="nonzero"/><path fill="#dda15e" d="M 284.714844 163.03125 L 297.25 159.675781 L 297.898438 162.089844 L 285.363281 165.445312 Z M 284.714844 163.03125 " fill-opacity="1" fill-rule="nonzero"/><path fill="#dda15e" d="M 214.53125 181.832031 L 227.066406 178.476562 L 227.710938 180.894531 L 215.175781 184.25 Z M 214.53125 181.832031 " fill-opacity="1" fill-rule="nonzero"/><path fill="#dda15e" d="M 222.917969 153.535156 L 250.90625 125.546875 L 252.671875 127.3125 L 224.6875 155.300781 Z M 222.917969 153.535156 " fill-opacity="1" fill-rule="nonzero"/><path fill="#dda15e" d="M 258.128906 118.324219 L 267.304688 109.144531 L 269.074219 110.914062 L 259.898438 120.089844 Z M 258.128906 118.324219 " fill-opacity="1" fill-rule="nonzero"/><path fill="#dda15e" d="M 206.746094 169.707031 L 215.921875 160.53125 L 217.6875 162.296875 L 208.511719 171.476562 Z M 206.746094 169.707031 " fill-opacity="1" fill-rule="nonzero"/><path fill="#dda15e" d="M 199.871094 140.953125 L 210.148438 102.730469 L 212.566406 103.378906 L 202.285156 141.601562 Z M 199.871094 140.953125 " fill-opacity="1" fill-rule="nonzero"/><g clip-path="url(#50e1590a9e)"><path fill="#dda15e" d="M 212.761719 92.875 L 216.132812 80.34375 L 218.546875 80.992188 L 215.175781 93.523438 Z M 212.761719 92.875 " fill-opacity="1" fill-rule="nonzero"/></g><path fill="#dda15e" d="M 193.949219 163.054688 L 197.320312 150.523438 L 199.734375 151.175781 L 196.363281 163.707031 Z M 193.949219 163.054688 " fill-opacity="1" fill-rule="nonzero"/><path fill="#dda15e" d="M 163.394531 103.382812 L 165.808594 102.734375 L 176.054688 140.96875 L 173.636719 141.613281 Z M 163.394531 103.382812 " fill-opacity="1" fill-rule="nonzero"/><g clip-path="url(#dd3535b8e8)"><path fill="#dda15e" d="M 157.386719 80.976562 L 159.800781 80.328125 L 163.160156 92.863281 L 160.746094 93.511719 Z M 157.386719 80.976562 " fill-opacity="1" fill-rule="nonzero"/></g><path fill="#dda15e" d="M 176.183594 151.164062 L 178.601562 150.519531 L 181.957031 163.054688 L 179.542969 163.699219 Z M 176.183594 151.164062 " fill-opacity="1" fill-rule="nonzero"/><path fill="#dda15e" d="M 186.726562 119.210938 L 189.226562 119.210938 L 189.226562 155.890625 L 186.726562 155.890625 Z M 186.726562 119.210938 " fill-opacity="1" fill-rule="nonzero"/><path fill="#dda15e" d="M 186.726562 103.054688 L 189.226562 103.054688 L 189.226562 111.957031 L 186.726562 111.957031 Z M 186.726562 103.054688 " fill-opacity="1" fill-rule="nonzero"/><path fill="#dda15e" d="M 151.339844 129.351562 L 153.507812 128.101562 L 171.847656 159.867188 L 169.683594 161.117188 Z M 151.339844 129.351562 " fill-opacity="1" fill-rule="nonzero"/><path fill="#dda15e" d="M 143.28125 115.351562 L 145.449219 114.101562 L 149.898438 121.808594 L 147.734375 123.058594 Z M 143.28125 115.351562 " fill-opacity="1" fill-rule="nonzero"/><path fill="#dda15e" d="M 125.804688 155.808594 L 127.054688 153.644531 L 158.820312 171.984375 L 157.570312 174.148438 Z M 125.804688 155.808594 " fill-opacity="1" fill-rule="nonzero"/><path fill="#dda15e" d="M 111.820312 147.742188 L 113.070312 145.574219 L 120.78125 150.027344 L 119.53125 152.191406 Z M 111.820312 147.742188 " fill-opacity="1" fill-rule="nonzero"/><path fill="#dda15e" d="M 73.863281 189.019531 L 301.019531 189.019531 L 301.019531 191.519531 L 73.863281 191.519531 Z M 73.863281 189.019531 " fill-opacity="1" fill-rule="nonzero"/><path fill="#dda15e" d="M 217.121094 172.015625 L 248.882812 153.664062 L 250.132812 155.828125 L 218.371094 174.179688 Z M 217.121094 172.015625 " fill-opacity="1" fill-rule="nonzero"/><path fill="#dda15e" d="M 255.160156 150.039062 L 262.867188 145.585938 L 264.121094 147.75 L 256.414062 152.207031 Z M 255.160156 150.039062 " fill-opacity="1" fill-rule="nonzero"/><path fill="#dda15e" d="M 204.074219 159.867188 L 222.410156 128.101562 L 224.574219 129.351562 L 206.238281 161.117188 Z M 204.074219 159.867188 " fill-opacity="1" fill-rule="nonzero"/><path fill="#dda15e" d="M 226.035156 121.800781 L 230.484375 114.089844 L 232.652344 115.339844 L 228.203125 123.046875 Z M 226.035156 121.800781 " fill-opacity="1" fill-rule="nonzero"/><g clip-path="url(#729e11a4c3)"><path fill="#dda15e" d="M 78.613281 217.675781 C 72.460938 217.675781 67.460938 212.675781 67.460938 206.523438 L 69.960938 206.523438 C 69.960938 211.296875 73.835938 215.175781 78.613281 215.175781 C 83.386719 215.175781 87.261719 211.296875 87.261719 206.523438 L 89.765625 206.523438 C 89.765625 212.675781 84.761719 217.675781 78.613281 217.675781 Z M 78.613281 217.675781 " fill-opacity="1" fill-rule="nonzero"/></g><path fill="#dda15e" d="M 98.390625 217.675781 C 92.238281 217.675781 87.238281 212.675781 87.238281 206.523438 L 89.738281 206.523438 C 89.738281 211.296875 93.613281 215.175781 98.390625 215.175781 C 103.164062 215.175781 107.042969 211.296875 107.042969 206.523438 L 109.542969 206.523438 C 109.542969 212.675781 104.539062 217.675781 98.390625 217.675781 Z M 98.390625 217.675781 " fill-opacity="1" fill-rule="nonzero"/><path fill="#dda15e" d="M 118.191406 217.675781 C 112.042969 217.675781 107.042969 212.675781 107.042969 206.523438 L 109.542969 206.523438 C 109.542969 211.296875 113.417969 215.175781 118.191406 215.175781 C 122.96875 215.175781 126.84375 211.296875 126.84375 206.523438 L 129.34375 206.523438 C 129.34375 212.675781 124.34375 217.675781 118.191406 217.675781 Z M 118.191406 217.675781 " fill-opacity="1" fill-rule="nonzero"/><path fill="#dda15e" d="M 137.96875 217.675781 C 131.820312 217.675781 126.820312 212.675781 126.820312 206.523438 L 129.320312 206.523438 C 129.320312 211.296875 133.195312 215.175781 137.96875 215.175781 C 142.746094 215.175781 146.621094 211.296875 146.621094 206.523438 L 149.121094 206.523438 C 149.121094 212.675781 144.121094 217.675781 137.96875 217.675781 Z M 137.96875 217.675781 " fill-opacity="1" fill-rule="nonzero"/><path fill="#dda15e" d="M 157.773438 217.675781 C 151.621094 217.675781 146.621094 212.675781 146.621094 206.523438 L 149.121094 206.523438 C 149.121094 211.296875 152.996094 215.175781 157.773438 215.175781 C 162.550781 215.175781 166.425781 211.296875 166.425781 206.523438 L 168.925781 206.523438 C 168.898438 212.675781 163.925781 217.675781 157.773438 217.675781 Z M 157.773438 217.675781 " fill-opacity="1" fill-rule="nonzero"/><path fill="#dda15e" d="M 177.550781 217.675781 C 171.398438 217.675781 166.398438 212.675781 166.398438 206.523438 L 168.898438 206.523438 C 168.898438 211.296875 172.777344 215.175781 177.550781 215.175781 C 182.328125 215.175781 186.203125 211.296875 186.203125 206.523438 L 188.703125 206.523438 C 188.703125 212.675781 183.703125 217.675781 177.550781 217.675781 Z M 177.550781 217.675781 " fill-opacity="1" fill-rule="nonzero"/><path fill="#dda15e" d="M 197.355469 217.675781 C 191.203125 217.675781 186.203125 212.675781 186.203125 206.523438 L 188.703125 206.523438 C 188.703125 211.296875 192.578125 215.175781 197.355469 215.175781 C 202.128906 215.175781 206.003906 211.296875 206.003906 206.523438 L 208.503906 206.523438 C 208.480469 212.675781 203.480469 217.675781 197.355469 217.675781 Z M 197.355469 217.675781 " fill-opacity="1" fill-rule="nonzero"/><path fill="#dda15e" d="M 217.132812 217.675781 C 210.980469 217.675781 205.980469 212.675781 205.980469 206.523438 L 208.480469 206.523438 C 208.480469 211.296875 212.355469 215.175781 217.132812 215.175781 C 221.90625 215.175781 225.78125 211.296875 225.78125 206.523438 L 228.285156 206.523438 C 228.285156 212.675781 223.28125 217.675781 217.132812 217.675781 Z M 217.132812 217.675781 " fill-opacity="1" fill-rule="nonzero"/><path fill="#dda15e" d="M 236.933594 217.675781 C 230.785156 217.675781 225.78125 212.675781 225.78125 206.523438 L 228.285156 206.523438 C 228.285156 211.296875 232.160156 215.175781 236.933594 215.175781 C 241.710938 215.175781 245.585938 211.296875 245.585938 206.523438 L 248.085938 206.523438 C 248.0625 212.675781 243.058594 217.675781 236.933594 217.675781 Z M 236.933594 217.675781 " fill-opacity="1" fill-rule="nonzero"/><path fill="#dda15e" d="M 256.710938 217.675781 C 250.5625 217.675781 245.5625 212.675781 245.5625 206.523438 L 248.0625 206.523438 C 248.0625 211.296875 251.9375 215.175781 256.710938 215.175781 C 261.488281 215.175781 265.363281 211.296875 265.363281 206.523438 L 267.863281 206.523438 C 267.863281 212.675781 262.863281 217.675781 256.710938 217.675781 Z M 256.710938 217.675781 " fill-opacity="1" fill-rule="nonzero"/><path fill="#dda15e" d="M 276.515625 217.675781 C 270.363281 217.675781 265.363281 212.675781 265.363281 206.523438 L 267.863281 206.523438 C 267.863281 211.296875 271.738281 215.175781 276.515625 215.175781 C 281.289062 215.175781 285.167969 211.296875 285.167969 206.523438 L 287.667969 206.523438 C 287.640625 212.675781 282.640625 217.675781 276.515625 217.675781 Z M 276.515625 217.675781 " fill-opacity="1" fill-rule="nonzero"/><g clip-path="url(#0b2eab93ec)"><path fill="#dda15e" d="M 296.292969 217.675781 C 290.140625 217.675781 285.140625 212.675781 285.140625 206.523438 L 287.640625 206.523438 C 287.640625 211.296875 291.515625 215.175781 296.292969 215.175781 C 301.070312 215.175781 304.945312 211.296875 304.945312 206.523438 L 307.445312 206.523438 C 307.445312 212.675781 302.445312 217.675781 296.292969 217.675781 Z M 296.292969 217.675781 " fill-opacity="1" fill-rule="nonzero"/></g><g clip-path="url(#935df33e0b)"><path fill="#dda15e" d="M 78.613281 237.828125 C 72.460938 237.828125 67.460938 232.828125 67.460938 226.699219 L 69.960938 226.699219 C 69.960938 231.476562 73.835938 235.351562 78.613281 235.351562 C 83.386719 235.351562 87.261719 231.476562 87.261719 226.699219 L 89.765625 226.699219 C 89.765625 232.828125 84.761719 237.828125 78.613281 237.828125 Z M 78.613281 237.828125 " fill-opacity="1" fill-rule="nonzero"/></g><g clip-path="url(#dd27bda77f)"><path fill="#dda15e" d="M 98.390625 237.828125 C 92.238281 237.828125 87.238281 232.828125 87.238281 226.675781 L 89.738281 226.675781 C 89.738281 231.453125 93.613281 235.328125 98.390625 235.328125 C 103.164062 235.328125 107.042969 231.453125 107.042969 226.675781 L 109.542969 226.675781 C 109.542969 232.828125 104.539062 237.828125 98.390625 237.828125 Z M 98.390625 237.828125 " fill-opacity="1" fill-rule="nonzero"/></g><g clip-path="url(#3516a955f9)"><path fill="#dda15e" d="M 118.191406 237.828125 C 112.042969 237.828125 107.042969 232.828125 107.042969 226.675781 L 109.542969 226.675781 C 109.542969 231.453125 113.417969 235.328125 118.191406 235.328125 C 122.96875 235.328125 126.84375 231.453125 126.84375 226.675781 L 129.34375 226.675781 C 129.34375 232.828125 124.34375 237.828125 118.191406 237.828125 Z M 118.191406 237.828125 " fill-opacity="1" fill-rule="nonzero"/></g><g clip-path="url(#d40b3f9003)"><path fill="#dda15e" d="M 137.96875 237.828125 C 131.820312 237.828125 126.820312 232.828125 126.820312 226.675781 L 129.320312 226.675781 C 129.320312 231.453125 133.195312 235.328125 137.96875 235.328125 C 142.746094 235.328125 146.621094 231.453125 146.621094 226.675781 L 149.121094 226.675781 C 149.121094 232.828125 144.121094 237.828125 137.96875 237.828125 Z M 137.96875 237.828125 " fill-opacity="1" fill-rule="nonzero"/></g><g clip-path="url(#aaaccc2da7)"><path fill="#dda15e" d="M 157.773438 237.828125 C 151.621094 237.828125 146.621094 232.828125 146.621094 226.675781 L 149.121094 226.675781 C 149.121094 231.453125 152.996094 235.328125 157.773438 235.328125 C 162.550781 235.328125 166.425781 231.453125 166.425781 226.675781 L 168.925781 226.675781 C 168.898438 232.828125 163.925781 237.828125 157.773438 237.828125 Z M 157.773438 237.828125 " fill-opacity="1" fill-rule="nonzero"/></g><g clip-path="url(#ee8851fe7a)"><path fill="#dda15e" d="M 177.550781 237.828125 C 171.398438 237.828125 166.398438 232.828125 166.398438 226.675781 L 168.898438 226.675781 C 168.898438 231.453125 172.777344 235.328125 177.550781 235.328125 C 182.328125 235.328125 186.203125 231.453125 186.203125 226.675781 L 188.703125 226.675781 C 188.703125 232.828125 183.703125 237.828125 177.550781 237.828125 Z M 177.550781 237.828125 " fill-opacity="1" fill-rule="nonzero"/></g><g clip-path="url(#4940c04b51)"><path fill="#dda15e" d="M 197.355469 237.828125 C 191.203125 237.828125 186.203125 232.828125 186.203125 226.675781 L 188.703125 226.675781 C 188.703125 231.453125 192.578125 235.328125 197.355469 235.328125 C 202.128906 235.328125 206.003906 231.453125 206.003906 226.675781 L 208.503906 226.675781 C 208.480469 232.828125 203.480469 237.828125 197.355469 237.828125 Z M 197.355469 237.828125 " fill-opacity="1" fill-rule="nonzero"/></g><g clip-path="url(#83623f00f5)"><path fill="#dda15e" d="M 217.132812 237.828125 C 210.980469 237.828125 205.980469 232.828125 205.980469 226.675781 L 208.480469 226.675781 C 208.480469 231.453125 212.355469 235.328125 217.132812 235.328125 C 221.90625 235.328125 225.78125 231.453125 225.78125 226.675781 L 228.285156 226.675781 C 228.285156 232.828125 223.28125 237.828125 217.132812 237.828125 Z M 217.132812 237.828125 " fill-opacity="1" fill-rule="nonzero"/></g><g clip-path="url(#210ce4775d)"><path fill="#dda15e" d="M 236.933594 237.828125 C 230.785156 237.828125 225.78125 232.828125 225.78125 226.675781 L 228.285156 226.675781 C 228.285156 231.453125 232.160156 235.328125 236.933594 235.328125 C 241.710938 235.328125 245.585938 231.453125 245.585938 226.675781 L 248.085938 226.675781 C 248.0625 232.828125 243.058594 237.828125 236.933594 237.828125 Z M 236.933594 237.828125 " fill-opacity="1" fill-rule="nonzero"/></g><g clip-path="url(#6da8cebb2b)"><path fill="#dda15e" d="M 256.710938 237.828125 C 250.5625 237.828125 245.5625 232.828125 245.5625 226.675781 L 248.0625 226.675781 C 248.0625 231.453125 251.9375 235.328125 256.710938 235.328125 C 261.488281 235.328125 265.363281 231.453125 265.363281 226.675781 L 267.863281 226.675781 C 267.863281 232.828125 262.863281 237.828125 256.710938 237.828125 Z M 256.710938 237.828125 " fill-opacity="1" fill-rule="nonzero"/></g><g clip-path="url(#ecdc4fdecf)"><path fill="#dda15e" d="M 276.515625 237.828125 C 270.363281 237.828125 265.363281 232.828125 265.363281 226.675781 L 267.863281 226.675781 C 267.863281 231.453125 271.738281 235.328125 276.515625 235.328125 C 281.289062 235.328125 285.167969 231.453125 285.167969 226.675781 L 287.667969 226.675781 C 287.640625 232.828125 282.640625 237.828125 276.515625 237.828125 Z M 276.515625 237.828125 " fill-opacity="1" fill-rule="nonzero"/></g><g clip-path="url(#1482df3d93)"><path fill="#dda15e" d="M 296.292969 237.828125 C 290.140625 237.828125 285.140625 232.828125 285.140625 226.675781 L 287.640625 226.675781 C 287.640625 231.453125 291.515625 235.328125 296.292969 235.328125 C 301.070312 235.328125 304.945312 231.453125 304.945312 226.675781 L 307.445312 226.675781 C 307.445312 232.828125 302.445312 237.828125 296.292969 237.828125 Z M 296.292969 237.828125 " fill-opacity="1" fill-rule="nonzero"/></g></svg>