<svg xmlns="http://www.w3.org/2000/svg" xmlns:xlink="http://www.w3.org/1999/xlink" width="500" zoomAndPan="magnify" viewBox="0 0 375 374.999991" height="500" preserveAspectRatio="xMidYMid meet" version="1.0"><defs><clipPath id="0264a89afa"><path d="M 222 78.167969 L 231 78.167969 L 231 97 L 222 97 Z M 222 78.167969 " clip-rule="nonzero"/></clipPath><clipPath id="9e16ec9122"><path d="M 145 78.167969 L 154 78.167969 L 154 97 L 145 97 Z M 145 78.167969 " clip-rule="nonzero"/></clipPath><clipPath id="44019836c4"><path d="M 20.898438 253 L 52 253 L 52 270 L 20.898438 270 Z M 20.898438 253 " clip-rule="nonzero"/></clipPath><clipPath id="28d4682596"><path d="M 322 253 L 353.898438 253 L 353.898438 270 L 322 270 Z M 322 253 " clip-rule="nonzero"/></clipPath><clipPath id="ce7d3f4469"><path d="M 20.898438 281 L 52 281 L 52 297.167969 L 20.898438 297.167969 Z M 20.898438 281 " clip-rule="nonzero"/></clipPath><clipPath id="e02e325027"><path d="M 48 281 L 80 281 L 80 297.167969 L 48 297.167969 Z M 48 281 " clip-rule="nonzero"/></clipPath><clipPath id="bd4d12a7ff"><path d="M 75 281 L 107 281 L 107 297.167969 L 75 297.167969 Z M 75 281 " clip-rule="nonzero"/></clipPath><clipPath id="a601d88df2"><path d="M 103 281 L 135 281 L 135 297.167969 L 103 297.167969 Z M 103 281 " clip-rule="nonzero"/></clipPath><clipPath id="a9d4d6e193"><path d="M 130 281 L 162 281 L 162 297.167969 L 130 297.167969 Z M 130 281 " clip-rule="nonzero"/></clipPath><clipPath id="9f4d3e64fc"><path d="M 158 281 L 190 281 L 190 297.167969 L 158 297.167969 Z M 158 281 " clip-rule="nonzero"/></clipPath><clipPath id="9e244c36f0"><path d="M 185 281 L 217 281 L 217 297.167969 L 185 297.167969 Z M 185 281 " clip-rule="nonzero"/></clipPath><clipPath id="4a5a319bff"><path d="M 213 281 L 245 281 L 245 297.167969 L 213 297.167969 Z M 213 281 " clip-rule="nonzero"/></clipPath><clipPath id="cac5a87529"><path d="M 240 281 L 272 281 L 272 297.167969 L 240 297.167969 Z M 240 281 " clip-rule="nonzero"/></clipPath><clipPath id="9710ef3c51"><path d="M 268 281 L 299 281 L 299 297.167969 L 268 297.167969 Z M 268 281 " clip-rule="nonzero"/></clipPath><clipPath id="235a839fac"><path d="M 295 281 L 327 281 L 327 297.167969 L 295 297.167969 Z M 295 281 " clip-rule="nonzero"/></clipPath><clipPath id="f0ac8dd492"><path d="M 322 281 L 353.898438 281 L 353.898438 297.167969 L 322 297.167969 Z M 322 281 " clip-rule="nonzero"/></clipPath></defs><path fill="#dda15e" d="M 213.449219 231.039062 L 209.980469 231.039062 C 209.980469 218.941406 200.164062 209.101562 188.125 209.101562 C 176.050781 209.101562 166.234375 218.941406 166.234375 231.039062 L 162.765625 231.039062 C 162.765625 217.027344 174.144531 205.625 188.125 205.625 C 202.070312 205.625 213.449219 217.027344 213.449219 231.039062 Z M 213.449219 231.039062 " fill-opacity="1" fill-rule="nonzero"/><path fill="#dda15e" d="M 98.308594 143.5 L 100.761719 141.039062 L 139.597656 179.957031 L 137.144531 182.414062 Z M 98.308594 143.5 " fill-opacity="1" fill-rule="nonzero"/><path fill="#dda15e" d="M 75.5625 120.691406 L 78.015625 118.234375 L 90.75 130.992188 L 88.296875 133.449219 Z M 75.5625 120.691406 " fill-opacity="1" fill-rule="nonzero"/><path fill="#dda15e" d="M 146.851562 192.148438 L 149.304688 189.6875 L 162.039062 202.449219 L 159.585938 204.90625 Z M 146.851562 192.148438 " fill-opacity="1" fill-rule="nonzero"/><path fill="#dda15e" d="M 66.648438 200.230469 L 67.546875 196.871094 L 120.59375 211.121094 L 119.695312 214.476562 Z M 66.648438 200.230469 " fill-opacity="1" fill-rule="nonzero"/><path fill="#dda15e" d="M 35.59375 191.859375 L 36.488281 188.5 L 53.882812 193.171875 L 52.984375 196.53125 Z M 35.59375 191.859375 " fill-opacity="1" fill-rule="nonzero"/><path fill="#dda15e" d="M 132.984375 218.019531 L 133.882812 214.660156 L 151.273438 219.328125 L 150.378906 222.6875 Z M 132.984375 218.019531 " fill-opacity="1" fill-rule="nonzero"/><path fill="#dda15e" d="M 255.609375 211.089844 L 308.660156 196.859375 L 309.554688 200.21875 L 256.503906 214.449219 Z M 255.609375 211.089844 " fill-opacity="1" fill-rule="nonzero"/><path fill="#dda15e" d="M 322.351562 193.164062 L 339.742188 188.496094 L 340.640625 191.855469 L 323.246094 196.519531 Z M 322.351562 193.164062 " fill-opacity="1" fill-rule="nonzero"/><path fill="#dda15e" d="M 224.964844 219.308594 L 242.359375 214.640625 L 243.257812 218 L 225.863281 222.667969 Z M 224.964844 219.308594 " fill-opacity="1" fill-rule="nonzero"/><path fill="#dda15e" d="M 236.605469 179.957031 L 275.4375 141.039062 L 277.890625 143.5 L 239.058594 182.417969 Z M 236.605469 179.957031 " fill-opacity="1" fill-rule="nonzero"/><path fill="#dda15e" d="M 285.460938 130.996094 L 298.191406 118.238281 L 300.644531 120.695312 L 287.914062 133.457031 Z M 285.460938 130.996094 " fill-opacity="1" fill-rule="nonzero"/><path fill="#dda15e" d="M 214.164062 202.445312 L 226.898438 189.6875 L 229.351562 192.144531 L 216.617188 204.902344 Z M 214.164062 202.445312 " fill-opacity="1" fill-rule="nonzero"/><path fill="#dda15e" d="M 204.628906 162.464844 L 218.890625 109.316406 L 222.242188 110.21875 L 207.976562 163.367188 Z M 204.628906 162.464844 " fill-opacity="1" fill-rule="nonzero"/><g clip-path="url(#0264a89afa)"><path fill="#dda15e" d="M 222.515625 95.613281 L 227.191406 78.1875 L 230.539062 79.089844 L 225.863281 96.515625 Z M 222.515625 95.613281 " fill-opacity="1" fill-rule="nonzero"/></g><path fill="#dda15e" d="M 196.410156 193.199219 L 201.085938 175.773438 L 204.4375 176.675781 L 199.761719 194.101562 Z M 196.410156 193.199219 " fill-opacity="1" fill-rule="nonzero"/><path fill="#dda15e" d="M 154.015625 110.222656 L 157.367188 109.324219 L 171.582031 162.484375 L 168.230469 163.382812 Z M 154.015625 110.222656 " fill-opacity="1" fill-rule="nonzero"/><g clip-path="url(#9e16ec9122)"><path fill="#dda15e" d="M 145.679688 79.070312 L 149.03125 78.167969 L 153.691406 95.597656 L 150.339844 96.5 Z M 145.679688 79.070312 " fill-opacity="1" fill-rule="nonzero"/></g><path fill="#dda15e" d="M 171.761719 176.664062 L 175.113281 175.765625 L 179.773438 193.195312 L 176.421875 194.09375 Z M 171.761719 176.664062 " fill-opacity="1" fill-rule="nonzero"/><path fill="#dda15e" d="M 186.390625 132.230469 L 189.859375 132.230469 L 189.859375 183.234375 L 186.390625 183.234375 Z M 186.390625 132.230469 " fill-opacity="1" fill-rule="nonzero"/><path fill="#dda15e" d="M 186.390625 109.769531 L 189.859375 109.769531 L 189.859375 122.148438 L 186.390625 122.148438 Z M 186.390625 109.769531 " fill-opacity="1" fill-rule="nonzero"/><path fill="#dda15e" d="M 137.292969 146.332031 L 140.296875 144.59375 L 165.742188 188.761719 L 162.738281 190.5 Z M 137.292969 146.332031 " fill-opacity="1" fill-rule="nonzero"/><path fill="#dda15e" d="M 126.109375 126.867188 L 129.113281 125.128906 L 135.289062 135.847656 L 132.285156 137.585938 Z M 126.109375 126.867188 " fill-opacity="1" fill-rule="nonzero"/><path fill="#dda15e" d="M 101.863281 183.121094 L 103.597656 180.109375 L 147.671875 205.613281 L 145.9375 208.621094 Z M 101.863281 183.121094 " fill-opacity="1" fill-rule="nonzero"/><path fill="#dda15e" d="M 82.457031 171.902344 L 84.191406 168.894531 L 94.890625 175.082031 L 93.15625 178.089844 Z M 82.457031 171.902344 " fill-opacity="1" fill-rule="nonzero"/><path fill="#dda15e" d="M 29.789062 229.300781 L 344.972656 229.300781 L 344.972656 232.777344 L 29.789062 232.777344 Z M 29.789062 229.300781 " fill-opacity="1" fill-rule="nonzero"/><path fill="#dda15e" d="M 228.5625 205.65625 L 272.628906 180.136719 L 274.367188 183.148438 L 230.300781 208.664062 Z M 228.5625 205.65625 " fill-opacity="1" fill-rule="nonzero"/><path fill="#dda15e" d="M 281.34375 175.101562 L 292.039062 168.90625 L 293.773438 171.917969 L 283.082031 178.109375 Z M 281.34375 175.101562 " fill-opacity="1" fill-rule="nonzero"/><path fill="#dda15e" d="M 210.460938 188.765625 L 235.902344 144.59375 L 238.90625 146.332031 L 213.464844 190.503906 Z M 210.460938 188.765625 " fill-opacity="1" fill-rule="nonzero"/><path fill="#dda15e" d="M 240.933594 135.832031 L 247.105469 125.113281 L 250.113281 126.847656 L 243.9375 137.570312 Z M 240.933594 135.832031 " fill-opacity="1" fill-rule="nonzero"/><g clip-path="url(#44019836c4)"><path fill="#dda15e" d="M 36.378906 269.144531 C 27.84375 269.144531 20.90625 262.191406 20.90625 253.636719 L 24.375 253.636719 C 24.375 260.277344 29.753906 265.667969 36.378906 265.667969 C 43.003906 265.667969 48.382812 260.277344 48.382812 253.636719 L 51.851562 253.636719 C 51.851562 262.191406 44.914062 269.144531 36.378906 269.144531 Z M 36.378906 269.144531 " fill-opacity="1" fill-rule="nonzero"/></g><path fill="#dda15e" d="M 63.820312 269.144531 C 55.285156 269.144531 48.347656 262.191406 48.347656 253.636719 L 51.816406 253.636719 C 51.816406 260.277344 57.195312 265.667969 63.820312 265.667969 C 70.449219 265.667969 75.824219 260.277344 75.824219 253.636719 L 79.292969 253.636719 C 79.292969 262.191406 72.355469 269.144531 63.820312 269.144531 Z M 63.820312 269.144531 " fill-opacity="1" fill-rule="nonzero"/><path fill="#dda15e" d="M 91.296875 269.144531 C 82.761719 269.144531 75.824219 262.191406 75.824219 253.636719 L 79.292969 253.636719 C 79.292969 260.277344 84.671875 265.667969 91.296875 265.667969 C 97.925781 265.667969 103.300781 260.277344 103.300781 253.636719 L 106.769531 253.636719 C 106.769531 262.191406 99.832031 269.144531 91.296875 269.144531 Z M 91.296875 269.144531 " fill-opacity="1" fill-rule="nonzero"/><path fill="#dda15e" d="M 118.738281 269.144531 C 110.207031 269.144531 103.265625 262.191406 103.265625 253.636719 L 106.734375 253.636719 C 106.734375 260.277344 112.113281 265.667969 118.738281 265.667969 C 125.367188 265.667969 130.742188 260.277344 130.742188 253.636719 L 134.214844 253.636719 C 134.214844 262.191406 127.273438 269.144531 118.738281 269.144531 Z M 118.738281 269.144531 " fill-opacity="1" fill-rule="nonzero"/><path fill="#dda15e" d="M 146.214844 269.144531 C 137.683594 269.144531 130.742188 262.191406 130.742188 253.636719 L 134.214844 253.636719 C 134.214844 260.277344 139.589844 265.667969 146.214844 265.667969 C 152.84375 265.667969 158.21875 260.277344 158.21875 253.636719 L 161.691406 253.636719 C 161.65625 262.191406 154.75 269.144531 146.214844 269.144531 Z M 146.214844 269.144531 " fill-opacity="1" fill-rule="nonzero"/><path fill="#dda15e" d="M 173.660156 269.144531 C 165.125 269.144531 158.1875 262.191406 158.1875 253.636719 L 161.65625 253.636719 C 161.65625 260.277344 167.03125 265.667969 173.660156 265.667969 C 180.285156 265.667969 185.664062 260.277344 185.664062 253.636719 L 189.132812 253.636719 C 189.132812 262.191406 182.191406 269.144531 173.660156 269.144531 Z M 173.660156 269.144531 " fill-opacity="1" fill-rule="nonzero"/><path fill="#dda15e" d="M 201.136719 269.144531 C 192.601562 269.144531 185.664062 262.191406 185.664062 253.636719 L 189.132812 253.636719 C 189.132812 260.277344 194.507812 265.667969 201.136719 265.667969 C 207.761719 265.667969 213.140625 260.277344 213.140625 253.636719 L 216.609375 253.636719 C 216.574219 262.191406 209.636719 269.144531 201.136719 269.144531 Z M 201.136719 269.144531 " fill-opacity="1" fill-rule="nonzero"/><path fill="#dda15e" d="M 228.578125 269.144531 C 220.042969 269.144531 213.105469 262.191406 213.105469 253.636719 L 216.574219 253.636719 C 216.574219 260.277344 221.949219 265.667969 228.578125 265.667969 C 235.203125 265.667969 240.582031 260.277344 240.582031 253.636719 L 244.050781 253.636719 C 244.050781 262.191406 237.113281 269.144531 228.578125 269.144531 Z M 228.578125 269.144531 " fill-opacity="1" fill-rule="nonzero"/><path fill="#dda15e" d="M 256.054688 269.144531 C 247.519531 269.144531 240.582031 262.191406 240.582031 253.636719 L 244.050781 253.636719 C 244.050781 260.277344 249.425781 265.667969 256.054688 265.667969 C 262.679688 265.667969 268.058594 260.277344 268.058594 253.636719 L 271.527344 253.636719 C 271.492188 262.191406 264.554688 269.144531 256.054688 269.144531 Z M 256.054688 269.144531 " fill-opacity="1" fill-rule="nonzero"/><path fill="#dda15e" d="M 283.496094 269.144531 C 274.960938 269.144531 268.023438 262.191406 268.023438 253.636719 L 271.492188 253.636719 C 271.492188 260.277344 276.871094 265.667969 283.496094 265.667969 C 290.121094 265.667969 295.5 260.277344 295.5 253.636719 L 298.96875 253.636719 C 298.96875 262.191406 292.03125 269.144531 283.496094 269.144531 Z M 283.496094 269.144531 " fill-opacity="1" fill-rule="nonzero"/><path fill="#dda15e" d="M 310.972656 269.144531 C 302.4375 269.144531 295.5 262.191406 295.5 253.636719 L 298.96875 253.636719 C 298.96875 260.277344 304.347656 265.667969 310.972656 265.667969 C 317.597656 265.667969 322.976562 260.277344 322.976562 253.636719 L 326.445312 253.636719 C 326.410156 262.191406 319.472656 269.144531 310.972656 269.144531 Z M 310.972656 269.144531 " fill-opacity="1" fill-rule="nonzero"/><g clip-path="url(#28d4682596)"><path fill="#dda15e" d="M 338.414062 269.144531 C 329.878906 269.144531 322.941406 262.191406 322.941406 253.636719 L 326.410156 253.636719 C 326.410156 260.277344 331.789062 265.667969 338.414062 265.667969 C 345.039062 265.667969 350.417969 260.277344 350.417969 253.636719 L 353.886719 253.636719 C 353.886719 262.191406 346.949219 269.144531 338.414062 269.144531 Z M 338.414062 269.144531 " fill-opacity="1" fill-rule="nonzero"/></g><g clip-path="url(#ce7d3f4469)"><path fill="#dda15e" d="M 36.378906 297.167969 C 27.84375 297.167969 20.90625 290.214844 20.90625 281.695312 L 24.375 281.695312 C 24.375 288.335938 29.753906 293.726562 36.378906 293.726562 C 43.003906 293.726562 48.382812 288.335938 48.382812 281.695312 L 51.851562 281.695312 C 51.851562 290.214844 44.914062 297.167969 36.378906 297.167969 Z M 36.378906 297.167969 " fill-opacity="1" fill-rule="nonzero"/></g><g clip-path="url(#e02e325027)"><path fill="#dda15e" d="M 63.820312 297.167969 C 55.285156 297.167969 48.347656 290.214844 48.347656 281.660156 L 51.816406 281.660156 C 51.816406 288.300781 57.195312 293.691406 63.820312 293.691406 C 70.449219 293.691406 75.824219 288.300781 75.824219 281.660156 L 79.292969 281.660156 C 79.292969 290.214844 72.355469 297.167969 63.820312 297.167969 Z M 63.820312 297.167969 " fill-opacity="1" fill-rule="nonzero"/></g><g clip-path="url(#bd4d12a7ff)"><path fill="#dda15e" d="M 91.296875 297.167969 C 82.761719 297.167969 75.824219 290.214844 75.824219 281.660156 L 79.292969 281.660156 C 79.292969 288.300781 84.671875 293.691406 91.296875 293.691406 C 97.925781 293.691406 103.300781 288.300781 103.300781 281.660156 L 106.769531 281.660156 C 106.769531 290.214844 99.832031 297.167969 91.296875 297.167969 Z M 91.296875 297.167969 " fill-opacity="1" fill-rule="nonzero"/></g><g clip-path="url(#a601d88df2)"><path fill="#dda15e" d="M 118.738281 297.167969 C 110.207031 297.167969 103.265625 290.214844 103.265625 281.660156 L 106.734375 281.660156 C 106.734375 288.300781 112.113281 293.691406 118.738281 293.691406 C 125.367188 293.691406 130.742188 288.300781 130.742188 281.660156 L 134.214844 281.660156 C 134.214844 290.214844 127.273438 297.167969 118.738281 297.167969 Z M 118.738281 297.167969 " fill-opacity="1" fill-rule="nonzero"/></g><g clip-path="url(#a9d4d6e193)"><path fill="#dda15e" d="M 146.214844 297.167969 C 137.683594 297.167969 130.742188 290.214844 130.742188 281.660156 L 134.214844 281.660156 C 134.214844 288.300781 139.589844 293.691406 146.214844 293.691406 C 152.84375 293.691406 158.21875 288.300781 158.21875 281.660156 L 161.691406 281.660156 C 161.65625 290.214844 154.75 297.167969 146.214844 297.167969 Z M 146.214844 297.167969 " fill-opacity="1" fill-rule="nonzero"/></g><g clip-path="url(#9f4d3e64fc)"><path fill="#dda15e" d="M 173.660156 297.167969 C 165.125 297.167969 158.1875 290.214844 158.1875 281.660156 L 161.65625 281.660156 C 161.65625 288.300781 167.03125 293.691406 173.660156 293.691406 C 180.285156 293.691406 185.664062 288.300781 185.664062 281.660156 L 189.132812 281.660156 C 189.132812 290.214844 182.191406 297.167969 173.660156 297.167969 Z M 173.660156 297.167969 " fill-opacity="1" fill-rule="nonzero"/></g><g clip-path="url(#9e244c36f0)"><path fill="#dda15e" d="M 201.136719 297.167969 C 192.601562 297.167969 185.664062 290.214844 185.664062 281.660156 L 189.132812 281.660156 C 189.132812 288.300781 194.507812 293.691406 201.136719 293.691406 C 207.761719 293.691406 213.140625 288.300781 213.140625 281.660156 L 216.609375 281.660156 C 216.574219 290.214844 209.636719 297.167969 201.136719 297.167969 Z M 201.136719 297.167969 " fill-opacity="1" fill-rule="nonzero"/></g><g clip-path="url(#4a5a319bff)"><path fill="#dda15e" d="M 228.578125 297.167969 C 220.042969 297.167969 213.105469 290.214844 213.105469 281.660156 L 216.574219 281.660156 C 216.574219 288.300781 221.949219 293.691406 228.578125 293.691406 C 235.203125 293.691406 240.582031 288.300781 240.582031 281.660156 L 244.050781 281.660156 C 244.050781 290.214844 237.113281 297.167969 228.578125 297.167969 Z M 228.578125 297.167969 " fill-opacity="1" fill-rule="nonzero"/></g><g clip-path="url(#cac5a87529)"><path fill="#dda15e" d="M 256.054688 297.167969 C 247.519531 297.167969 240.582031 290.214844 240.582031 281.660156 L 244.050781 281.660156 C 244.050781 288.300781 249.425781 293.691406 256.054688 293.691406 C 262.679688 293.691406 268.058594 288.300781 268.058594 281.660156 L 271.527344 281.660156 C 271.492188 290.214844 264.554688 297.167969 256.054688 297.167969 Z M 256.054688 297.167969 " fill-opacity="1" fill-rule="nonzero"/></g><g clip-path="url(#9710ef3c51)"><path fill="#dda15e" d="M 283.496094 297.167969 C 274.960938 297.167969 268.023438 290.214844 268.023438 281.660156 L 271.492188 281.660156 C 271.492188 288.300781 276.871094 293.691406 283.496094 293.691406 C 290.121094 293.691406 295.5 288.300781 295.5 281.660156 L 298.96875 281.660156 C 298.96875 290.214844 292.03125 297.167969 283.496094 297.167969 Z M 283.496094 297.167969 " fill-opacity="1" fill-rule="nonzero"/></g><g clip-path="url(#235a839fac)"><path fill="#dda15e" d="M 310.972656 297.167969 C 302.4375 297.167969 295.5 290.214844 295.5 281.660156 L 298.96875 281.660156 C 298.96875 288.300781 304.347656 293.691406 310.972656 293.691406 C 317.597656 293.691406 322.976562 288.300781 322.976562 281.660156 L 326.445312 281.660156 C 326.410156 290.214844 319.472656 297.167969 310.972656 297.167969 Z M 310.972656 297.167969 " fill-opacity="1" fill-rule="nonzero"/></g><g clip-path="url(#f0ac8dd492)"><path fill="#dda15e" d="M 338.414062 297.167969 C 329.878906 297.167969 322.941406 290.214844 322.941406 281.660156 L 326.410156 281.660156 C 326.410156 288.300781 331.789062 293.691406 338.414062 293.691406 C 345.039062 293.691406 350.417969 288.300781 350.417969 281.660156 L 353.886719 281.660156 C 353.886719 290.214844 346.949219 297.167969 338.414062 297.167969 Z M 338.414062 297.167969 " fill-opacity="1" fill-rule="nonzero"/></g></svg>